<svg width="281" height="119" viewBox="0 0 281 119" fill="none" xmlns="http://www.w3.org/2000/svg">
<g filter="url(#filter0_d_425_1509)">
<path d="M21.2987 38.9087C19.0279 38.9087 16.8466 38.4713 14.7546 37.5968C12.6805 36.7222 10.839 35.4629 9.22983 33.8187C7.63853 32.1747 6.36907 30.172 5.42144 27.8106C4.47382 25.4319 4 22.7557 4 19.7822C4 16.8087 4.46488 14.1151 5.39463 11.7015C6.32437 9.27027 7.61171 7.18009 9.25666 5.43095C10.8837 3.69933 12.8058 2.36128 15.0229 1.41675C17.2399 0.472246 19.6091 0 22.1301 0C24.0075 0 25.7061 0.227377 27.2259 0.682145C28.7455 1.1369 30.1939 1.77533 31.5706 2.5974L32.6702 0.813326H34.8158L35.0572 14.089H32.858C32.5719 12.7947 32.1427 11.3954 31.5706 9.89117C30.9984 8.36936 30.328 7.08382 29.559 6.0344C28.7008 4.84497 27.6818 3.91794 26.5016 3.25331C25.3216 2.57116 23.9716 2.2301 22.4518 2.2301C20.7175 2.2301 19.0995 2.60615 17.5975 3.35826C16.1135 4.11033 14.8262 5.2211 13.7356 6.69023C12.6986 8.10712 11.885 9.90864 11.2949 12.0949C10.7049 14.2814 10.4099 16.7213 10.4099 19.4149C10.4099 21.7938 10.7138 23.9801 11.3218 25.9741C11.9476 27.9506 12.8327 29.6909 13.977 31.1951C15.1213 32.6818 16.4711 33.845 18.0267 34.6846C19.6001 35.5241 21.3522 35.9438 23.2834 35.9438C24.7316 35.9438 26.0636 35.7253 27.2794 35.288C28.4953 34.8332 29.5502 34.2386 30.4441 33.5039C31.3382 32.7344 32.1249 31.8597 32.8043 30.8803C33.4837 29.9008 34.038 28.8339 34.467 27.6794L36.4785 28.624C34.9409 32.3145 32.9027 34.9556 30.3637 36.5473C27.8247 38.1215 24.8031 38.9087 21.2987 38.9087Z" fill="#FF8652"/>
<path d="M51.6838 18.6445C52.2718 19.1809 52.7208 19.8223 53.0307 20.5686C53.3407 21.3149 53.4956 22.1232 53.4956 22.994C53.4956 23.8568 53.3407 24.6731 53.0307 25.4427C52.7287 26.2045 52.2838 26.8575 51.6957 27.4017C51.068 27.9847 50.317 28.4317 49.4429 28.7426C48.5767 29.0536 47.5833 29.209 46.4628 29.209C45.4934 29.209 44.5995 29.073 43.7809 28.8009C42.9704 28.5289 42.2512 28.1208 41.6235 27.5766C41.0195 27.0557 40.5427 26.4143 40.1931 25.6525C39.8434 24.883 39.6686 24.024 39.6686 23.0755C39.6686 22.1426 39.8196 21.3149 40.1216 20.5919C40.4314 19.8611 40.8924 19.212 41.5042 18.6445C42.0924 18.1003 42.8154 17.6806 43.6736 17.3851C44.5398 17.0819 45.5053 16.9305 46.5703 16.9305C47.6827 16.9305 48.6602 17.0819 49.5024 17.3851C50.3527 17.6806 51.0799 18.1003 51.6838 18.6445ZM48.6323 26.7254C48.8071 26.29 48.9342 25.7613 49.0137 25.1395C49.1011 24.5176 49.1449 23.7946 49.1449 22.9705C49.1449 22.4265 49.1051 21.8046 49.0256 21.1048C48.9463 20.4053 48.827 19.8533 48.6681 19.4492C48.4774 18.9593 48.2112 18.5745 47.8694 18.2947C47.5357 18.0148 47.1105 17.8749 46.5941 17.8749C46.0298 17.8749 45.5768 18.0264 45.2352 18.3297C44.9014 18.6329 44.6431 19.0254 44.4603 19.5074C44.2935 19.9505 44.1784 20.4714 44.1147 21.0699C44.0511 21.6607 44.0194 22.2787 44.0194 22.924C44.0194 23.7713 44.0471 24.4748 44.1028 25.0345C44.1584 25.5864 44.2935 26.1422 44.5081 26.702C44.6908 27.1841 44.9531 27.565 45.2947 27.8448C45.6365 28.1247 46.0695 28.2645 46.5941 28.2645C47.0708 28.2645 47.48 28.1363 47.8218 27.8797C48.1634 27.6154 48.4336 27.2306 48.6323 26.7254ZM81.1592 28.8359H74.0549V27.9847C74.2297 27.9614 74.4125 27.942 74.6032 27.9263C74.794 27.9108 74.9529 27.872 75.08 27.8097C75.2549 27.732 75.3661 27.6038 75.4137 27.425C75.4615 27.2384 75.4853 27.0014 75.4853 26.7136V21.2681C75.4853 20.4675 75.3383 19.8689 75.0443 19.4724C74.7583 19.0682 74.3449 18.866 73.8047 18.866C73.4629 18.866 73.157 18.9205 72.8868 19.0293C72.6245 19.1303 72.3822 19.2587 72.1596 19.4141C71.9292 19.5774 71.7504 19.7406 71.6233 19.9038C71.4961 20.0671 71.3888 20.2071 71.3014 20.3236V26.5854C71.3014 26.8652 71.3333 27.0946 71.3967 27.2733C71.4683 27.4444 71.5954 27.5805 71.7782 27.6815C71.9054 27.7515 72.0484 27.8136 72.2074 27.8681C72.3743 27.9224 72.549 27.9614 72.7318 27.9847V28.8359H65.9256V27.9847C66.0767 27.9691 66.2593 27.9497 66.474 27.9263C66.6885 27.903 66.8475 27.8642 66.9507 27.8097C67.1175 27.7242 67.2249 27.5999 67.2725 27.4366C67.3282 27.2733 67.356 27.0324 67.356 26.7136V21.2681C67.356 20.4675 67.2089 19.8689 66.9149 19.4724C66.6288 19.0682 66.2156 18.866 65.6752 18.866C65.3336 18.866 65.0277 18.9205 64.7575 19.0293C64.4952 19.1303 64.2528 19.2587 64.0303 19.4141C63.8 19.5774 63.6211 19.7406 63.4939 19.9038C63.3668 20.0671 63.2595 20.2071 63.1721 20.3236V26.5854C63.1721 26.8575 63.2078 27.0829 63.2794 27.2617C63.3509 27.4405 63.478 27.5805 63.6608 27.6815C63.788 27.7515 63.931 27.8136 64.09 27.8681C64.2568 27.9224 64.4316 27.9614 64.6144 27.9847V28.8359H57.4744V27.9847C57.6811 27.9691 57.8837 27.9497 58.0824 27.9263C58.281 27.903 58.4519 27.8642 58.5949 27.8097C58.8492 27.7164 59.0241 27.5844 59.1194 27.4133C59.2148 27.2345 59.2624 27.0014 59.2624 26.7136V19.9272C59.2624 19.6784 59.1948 19.4374 59.0598 19.2042C58.9248 18.9632 58.7618 18.7766 58.5711 18.6445C58.428 18.5512 58.2452 18.4735 58.0227 18.4112C57.8082 18.3491 57.5698 18.3063 57.3076 18.283V17.4318L62.9933 17.1287L63.1721 17.3036V18.9476H63.2199C63.4423 18.7533 63.7046 18.5241 64.0065 18.2597C64.3164 17.9876 64.6065 17.77 64.8767 17.6067C65.1707 17.4202 65.5481 17.2646 66.0091 17.1403C66.47 17.016 66.9745 16.9537 67.5229 16.9537C68.4287 16.9537 69.1837 17.1481 69.7876 17.5367C70.3995 17.9176 70.8325 18.4269 71.0869 19.0642H71.1941C71.4247 18.8544 71.7068 18.6096 72.0405 18.3297C72.3743 18.0421 72.6802 17.8127 72.9583 17.6417C73.2682 17.4473 73.6616 17.284 74.1383 17.1519C74.6231 17.0199 75.1397 16.9537 75.6879 16.9537C76.8879 16.9537 77.8097 17.2997 78.4533 17.9915C79.1049 18.6833 79.4308 19.6668 79.4308 20.9417V26.6087C79.4308 26.8963 79.4745 27.1296 79.5619 27.3084C79.6493 27.4794 79.8083 27.6115 80.0387 27.7048C80.1658 27.7593 80.3208 27.8136 80.5036 27.8681C80.6943 27.9224 80.9128 27.9614 81.1592 27.9847V28.8359ZM108.394 28.8359H101.289V27.9847C101.464 27.9614 101.647 27.942 101.838 27.9263C102.028 27.9108 102.187 27.872 102.314 27.8097C102.489 27.732 102.601 27.6038 102.648 27.425C102.696 27.2384 102.72 27.0014 102.72 26.7136V21.2681C102.72 20.4675 102.573 19.8689 102.279 19.4724C101.993 19.0682 101.579 18.866 101.039 18.866C100.697 18.866 100.391 18.9205 100.121 19.0293C99.8589 19.1303 99.6166 19.2587 99.394 19.4141C99.1636 19.5774 98.9848 19.7406 98.8577 19.9038C98.7305 20.0671 98.6232 20.2071 98.5358 20.3236V26.5854C98.5358 26.8652 98.5677 27.0946 98.6312 27.2733C98.7027 27.4444 98.8298 27.5805 99.0126 27.6815C99.1398 27.7515 99.2828 27.8136 99.4418 27.8681C99.6087 27.9224 99.7834 27.9614 99.9662 27.9847V28.8359H93.16V27.9847C93.3111 27.9691 93.4937 27.9497 93.7084 27.9263C93.9229 27.903 94.0819 27.8642 94.1852 27.8097C94.3519 27.7242 94.4593 27.5999 94.5069 27.4366C94.5626 27.2733 94.5904 27.0324 94.5904 26.7136V21.2681C94.5904 20.4675 94.4433 19.8689 94.1493 19.4724C93.8632 19.0682 93.4501 18.866 92.9096 18.866C92.568 18.866 92.2621 18.9205 91.9919 19.0293C91.7296 19.1303 91.4872 19.2587 91.2647 19.4141C91.0344 19.5774 90.8555 19.7406 90.7283 19.9038C90.6012 20.0671 90.4939 20.2071 90.4065 20.3236V26.5854C90.4065 26.8575 90.4422 27.0829 90.5138 27.2617C90.5853 27.4405 90.7124 27.5805 90.8952 27.6815C91.0225 27.7515 91.1654 27.8136 91.3244 27.8681C91.4912 27.9224 91.666 27.9614 91.8488 27.9847V28.8359H84.7088V27.9847C84.9155 27.9691 85.1182 27.9497 85.3168 27.9263C85.5155 27.903 85.6863 27.8642 85.8293 27.8097C86.0837 27.7164 86.2585 27.5844 86.3539 27.4133C86.4492 27.2345 86.4968 27.0014 86.4968 26.7136V19.9272C86.4968 19.6784 86.4292 19.4374 86.2942 19.2042C86.1592 18.9632 85.9962 18.7766 85.8055 18.6445C85.6624 18.5512 85.4796 18.4735 85.2572 18.4112C85.0426 18.3491 84.8042 18.3063 84.542 18.283V17.4318L90.2277 17.1287L90.4065 17.3036V18.9476H90.4543C90.6767 18.7533 90.939 18.5241 91.2409 18.2597C91.5508 17.9876 91.8409 17.77 92.1111 17.6067C92.4051 17.4202 92.7826 17.2646 93.2435 17.1403C93.7044 17.016 94.209 16.9537 94.7573 16.9537C95.6631 16.9537 96.4181 17.1481 97.022 17.5367C97.6339 17.9176 98.0669 18.4269 98.3213 19.0642H98.4285C98.6591 18.8544 98.9412 18.6096 99.2749 18.3297C99.6087 18.0421 99.9146 17.8127 100.193 17.6417C100.503 17.4473 100.896 17.284 101.373 17.1519C101.857 17.0199 102.374 16.9537 102.922 16.9537C104.122 16.9537 105.044 17.2997 105.688 17.9915C106.339 18.6833 106.665 19.6668 106.665 20.9417V26.6087C106.665 26.8963 106.709 27.1296 106.796 27.3084C106.884 27.4794 107.043 27.6115 107.273 27.7048C107.4 27.7593 107.555 27.8136 107.738 27.8681C107.929 27.9224 108.147 27.9614 108.394 27.9847V28.8359ZM127.499 28.5911L121.813 28.9292L121.634 28.7659V27.2384H121.563C121.292 27.4794 121.026 27.7164 120.764 27.9497C120.51 28.1751 120.204 28.3811 119.846 28.5677C119.441 28.7777 119.055 28.933 118.69 29.0341C118.332 29.1351 117.808 29.1857 117.117 29.1857C115.917 29.1857 114.995 28.832 114.351 28.1247C113.715 27.4172 113.398 26.4182 113.398 25.1278V19.8805C113.398 19.5774 113.338 19.3324 113.219 19.1459C113.099 18.9515 112.941 18.7805 112.742 18.6329C112.583 18.5163 112.376 18.4347 112.122 18.3879C111.868 18.3336 111.637 18.2985 111.431 18.283V17.4318L117.212 17.1287L117.343 17.3036V25.0579C117.343 25.8585 117.498 26.4494 117.808 26.8303C118.126 27.2112 118.559 27.4017 119.107 27.4017C119.671 27.4017 120.176 27.2578 120.621 26.9702C121.074 26.6826 121.404 26.3755 121.61 26.049V19.7639C121.61 19.4996 121.559 19.2626 121.455 19.0526C121.352 18.8427 121.201 18.6717 121.002 18.5396C120.859 18.4463 120.653 18.3841 120.383 18.353C120.12 18.322 119.85 18.2985 119.572 18.283V17.4318L125.353 17.1287L125.532 17.3036V26.3055C125.532 26.5776 125.587 26.8109 125.699 27.0052C125.81 27.1918 125.973 27.3511 126.188 27.4833C126.338 27.5766 126.533 27.6426 126.772 27.6815C127.018 27.7126 127.26 27.732 127.499 27.7397V28.5911ZM146.64 28.8359H139.464V27.9847C139.615 27.9691 139.798 27.9497 140.012 27.9263C140.227 27.903 140.39 27.8642 140.501 27.8097C140.668 27.7242 140.787 27.5999 140.858 27.4366C140.93 27.2733 140.966 27.0324 140.966 26.7136V21.2565C140.966 20.4635 140.815 19.8689 140.513 19.4724C140.219 19.0682 139.782 18.866 139.202 18.866C138.884 18.866 138.586 18.9127 138.308 19.006C138.037 19.0993 137.771 19.2353 137.509 19.4141C137.278 19.5696 137.092 19.729 136.949 19.8921C136.814 20.0554 136.698 20.1993 136.603 20.3236V26.5854C136.603 26.8575 136.643 27.0867 136.722 27.2733C136.802 27.4521 136.933 27.5882 137.116 27.6815C137.243 27.7515 137.402 27.8136 137.592 27.8681C137.783 27.9224 137.97 27.9614 138.153 27.9847V28.8359H130.905V27.9847C131.104 27.9691 131.303 27.9497 131.501 27.9263C131.708 27.8953 131.883 27.8565 132.026 27.8097C132.28 27.7242 132.455 27.5921 132.55 27.4133C132.646 27.2345 132.693 27.0014 132.693 26.7136V19.9272C132.693 19.6862 132.63 19.4492 132.503 19.2159C132.375 18.9827 132.209 18.7923 132.002 18.6445C131.859 18.5512 131.676 18.4735 131.454 18.4112C131.239 18.3491 131.001 18.3063 130.738 18.283V17.4318L136.424 17.1287L136.603 17.3036V18.9944H136.651C136.873 18.8 137.143 18.5667 137.461 18.2947C137.779 18.0226 138.073 17.8011 138.343 17.63C138.637 17.4434 139.023 17.284 139.5 17.1519C139.976 17.0199 140.485 16.9537 141.025 16.9537C142.321 16.9537 143.29 17.3152 143.934 18.0381C144.585 18.7533 144.911 19.7056 144.911 20.895V26.6087C144.911 26.8963 144.955 27.1257 145.042 27.2967C145.13 27.4678 145.292 27.6038 145.531 27.7048C145.658 27.7593 145.813 27.8136 145.996 27.8681C146.187 27.9224 146.401 27.9614 146.64 27.9847V28.8359ZM157.735 28.8359H150.201V27.9847C150.408 27.9691 150.611 27.9497 150.809 27.9263C151.008 27.903 151.179 27.8642 151.322 27.8097C151.575 27.7164 151.755 27.5844 151.858 27.4133C151.961 27.2345 152.013 27.0014 152.013 26.7136V19.9272C152.013 19.6551 151.949 19.418 151.822 19.2159C151.696 19.006 151.536 18.8388 151.345 18.7145C151.203 18.6212 150.983 18.5318 150.69 18.4463C150.404 18.3608 150.141 18.3063 149.903 18.283V17.4318L155.744 17.1287L155.922 17.3036V26.5621C155.922 26.8342 155.982 27.0673 156.102 27.2617C156.221 27.4482 156.392 27.5882 156.613 27.6815C156.774 27.7515 156.947 27.8136 157.138 27.8681C157.329 27.9224 157.527 27.9614 157.735 27.9847V28.8359ZM155.994 12.9308C155.994 13.5216 155.76 14.0268 155.29 14.4467C154.83 14.8586 154.282 15.0648 153.646 15.0648C153.002 15.0648 152.447 14.8586 151.977 14.4467C151.516 14.0268 151.285 13.5216 151.285 12.9308C151.285 12.3399 151.516 11.8347 151.977 11.4148C152.447 10.9951 153.002 10.7853 153.646 10.7853C154.29 10.7853 154.842 10.9951 155.303 11.4148C155.763 11.8347 155.994 12.3399 155.994 12.9308ZM170.14 28.2994C169.632 28.5172 169.088 28.7115 168.508 28.8826C167.928 29.0614 167.22 29.1508 166.386 29.1508C165.147 29.1508 164.224 28.8553 163.621 28.2645C163.024 27.6738 162.727 26.8303 162.727 25.7342V18.5745H160.58V17.3152H162.774V13.782H166.648V17.3152H169.986V18.5745H166.672V24.9646C166.672 25.874 166.799 26.5193 167.054 26.9002C167.316 27.2812 167.78 27.4717 168.448 27.4717C168.662 27.4717 168.961 27.456 169.343 27.425C169.724 27.3939 169.989 27.3588 170.14 27.32V28.2994ZM186.885 18.1197C186.528 18.1742 186.179 18.3063 185.837 18.5163C185.503 18.7262 185.225 19.0526 185.003 19.4957C184.319 20.9105 183.616 22.4186 182.893 24.0201C182.169 25.6137 181.367 27.3394 180.485 29.1974C179.992 30.239 179.515 31.0708 179.054 31.6928C178.593 32.3147 178.16 32.7928 177.755 33.127C177.374 33.438 176.996 33.6634 176.623 33.8033C176.25 33.9433 175.871 34.0133 175.49 34.0133C174.736 34.0133 174.123 33.8073 173.654 33.3952C173.194 32.9833 172.963 32.5207 172.963 32.0076C172.963 31.7899 172.988 31.5879 173.035 31.4013C173.09 31.2147 173.201 31.0204 173.369 30.8181C173.496 30.6472 173.691 30.4995 173.953 30.3751C174.223 30.2584 174.525 30.2002 174.858 30.2002C175.304 30.2002 175.729 30.3517 176.134 30.655C176.539 30.9581 176.961 31.3779 177.397 31.9143C177.659 31.6577 177.981 31.2729 178.363 30.7599C178.752 30.2546 179.039 29.7338 179.222 29.1974C178.276 27.2539 177.437 25.5709 176.706 24.1483C175.975 22.718 175.157 21.1244 174.251 19.3675C174.052 18.9944 173.785 18.7068 173.451 18.5045C173.119 18.2947 172.765 18.1664 172.391 18.1197V17.2685H179.686V18.1197C179.415 18.1275 179.103 18.1858 178.744 18.2947C178.395 18.4035 178.219 18.5435 178.219 18.7145C178.219 18.7766 178.231 18.8466 178.256 18.9244C178.279 18.9944 178.323 19.0993 178.387 19.2391C178.657 19.7833 179.039 20.5413 179.531 21.5131C180.032 22.477 180.612 23.608 181.271 24.9063C181.764 23.8024 182.182 22.854 182.523 22.0611C182.873 21.2604 183.21 20.4753 183.536 19.7056C183.616 19.5112 183.659 19.3597 183.668 19.2508C183.683 19.1342 183.691 19.0565 183.691 19.0177C183.691 18.8776 183.619 18.7572 183.477 18.6562C183.341 18.5473 183.178 18.4541 182.987 18.3763C182.789 18.2985 182.598 18.2403 182.415 18.2014C182.233 18.1626 182.082 18.1354 181.963 18.1197V17.2685H186.885V18.1197Z" fill="#FF8652"/>
<path d="M95.045 57.1869C95.8497 58.0614 96.4397 59.0235 96.8152 60.0729C97.2085 61.1049 97.4052 62.3118 97.4052 63.6936C97.4052 66.9818 96.1626 69.6929 93.6774 71.8268C91.1921 73.9607 88.1078 75.0276 84.4245 75.0276C82.7259 75.0276 81.0273 74.774 79.3289 74.2669C77.6303 73.7421 76.164 73.1124 74.9305 72.3777L73.7772 74.293H71.6315L71.256 61.5422H73.4285C73.8754 63.1162 74.394 64.5418 74.984 65.8187C75.5919 67.078 76.3876 68.2587 77.371 69.3605C78.3007 70.3925 79.3824 71.2146 80.6161 71.8268C81.8677 72.4389 83.3159 72.7451 84.961 72.7451C86.1947 72.7451 87.2674 72.5877 88.1792 72.2728C89.109 71.958 89.86 71.5119 90.4321 70.9347C91.0043 70.3576 91.4245 69.6841 91.6927 68.9146C91.9788 68.1275 92.1217 67.2268 92.1217 66.2123C92.1217 64.7255 91.6927 63.3437 90.8345 62.0668C89.9762 60.7725 88.6978 59.7931 86.9992 59.1284C85.8371 58.6736 84.5049 58.1751 83.0032 57.6329C81.5012 57.0732 80.205 56.5485 79.1142 56.0587C76.9687 55.1142 75.297 53.881 74.099 52.3594C72.9189 50.8202 72.3289 48.8175 72.3289 46.3512C72.3289 44.9345 72.6239 43.6138 73.214 42.3895C73.804 41.1651 74.6444 40.072 75.735 39.11C76.772 38.2005 77.9968 37.4921 79.4093 36.9848C80.8218 36.4601 82.2969 36.1978 83.8345 36.1978C85.5867 36.1978 87.1512 36.4601 88.528 36.9848C89.9225 37.5096 91.1921 38.1218 92.3364 38.8214L93.436 37.0373H95.5815L95.796 49.3947H93.6237C93.2303 47.9779 92.7833 46.6224 92.2827 45.3281C91.7999 44.0337 91.1652 42.8617 90.3786 41.8123C89.6096 40.7978 88.671 39.9933 87.5624 39.3985C86.4539 38.7865 85.0951 38.4803 83.4859 38.4803C81.7873 38.4803 80.3391 39.0138 79.1411 40.0808C77.9432 41.1477 77.3442 42.4507 77.3442 43.99C77.3442 45.5991 77.7285 46.9372 78.4973 48.0041C79.2662 49.0536 80.3838 49.9195 81.8499 50.6016C83.1551 51.2137 84.4335 51.7473 85.6851 52.2019C86.9545 52.6392 88.1792 53.1115 89.3594 53.6188C90.4321 54.0736 91.4602 54.5895 92.4437 55.1667C93.4449 55.7439 94.3121 56.4173 95.045 57.1869Z" fill="#F4F900"/>
<path d="M109.233 66.7876C107.852 66.7876 106.63 66.5933 105.567 66.2045C104.514 65.8061 103.645 65.2668 102.96 64.5867C102.274 63.8967 101.763 63.0804 101.425 62.1378C101.087 61.1953 100.919 60.1702 100.919 59.0624C100.919 58.0518 101.122 57.0898 101.529 56.1764C101.947 55.2629 102.508 54.4613 103.213 53.7714C103.938 53.062 104.837 52.4984 105.91 52.0806C106.993 51.653 108.185 51.4393 109.486 51.4393C111.314 51.4393 112.759 51.7793 113.822 52.4596C114.885 53.1301 115.416 54.0386 115.416 55.1852C115.416 55.8849 115.227 56.4485 114.85 56.8759C114.472 57.3036 113.822 57.5173 112.898 57.5173C112.153 57.5173 111.527 57.3424 111.021 56.9927C110.524 56.6428 110.276 56.1861 110.276 55.6225C110.276 55.1464 110.355 54.675 110.514 54.2086C110.673 53.7422 110.767 53.3875 110.797 53.1445C110.688 52.9698 110.549 52.8386 110.38 52.7511C110.211 52.6539 109.948 52.6053 109.59 52.6053C109.143 52.6053 108.736 52.7074 108.369 52.9114C108.001 53.1154 107.658 53.475 107.34 53.9899C107.032 54.4759 106.784 55.127 106.596 55.9431C106.417 56.7594 106.327 57.7409 106.327 58.8875C106.327 60.6172 106.74 62.0115 107.564 63.0707C108.398 64.1299 109.392 64.6595 110.544 64.6595C111.646 64.6595 112.521 64.4214 113.166 63.9453C113.822 63.4593 114.403 62.7744 114.91 61.8901L116.027 62.648C115.719 63.2408 115.352 63.7849 114.924 64.2805C114.497 64.7664 113.986 65.1988 113.39 65.5777C112.764 65.9761 112.128 66.2774 111.483 66.4815C110.837 66.6855 110.087 66.7876 109.233 66.7876ZM129.404 66.3212H119.987V65.2571C120.246 65.2377 120.499 65.2134 120.747 65.1841C120.996 65.155 121.209 65.1065 121.388 65.0385C121.706 64.9219 121.929 64.7567 122.058 64.5429C122.188 64.3193 122.252 64.0278 122.252 63.6683V55.1852C122.252 54.8452 122.173 54.5487 122.014 54.296C121.855 54.0337 121.656 53.8248 121.418 53.6693C121.239 53.5528 120.966 53.441 120.598 53.3341C120.241 53.2272 119.913 53.1592 119.615 53.1301V52.066L126.916 51.687L127.139 51.9057V63.4789C127.139 63.8189 127.214 64.1104 127.363 64.3534C127.512 64.5867 127.725 64.7614 128.003 64.8782C128.202 64.9656 128.421 65.0432 128.659 65.1113C128.897 65.1794 129.146 65.2279 129.404 65.2571V66.3212ZM127.229 46.4398C127.229 47.1782 126.936 47.8098 126.35 48.3346C125.773 48.8495 125.088 49.1072 124.293 49.1072C123.489 49.1072 122.794 48.8495 122.207 48.3346C121.631 47.8098 121.343 47.1782 121.343 46.4398C121.343 45.7013 121.631 45.0696 122.207 44.5448C122.794 44.0202 123.489 43.7578 124.293 43.7578C125.098 43.7578 125.788 44.0202 126.364 44.5448C126.941 45.0696 127.229 45.7013 127.229 46.4398ZM149.844 62.8375C149.496 63.3914 149.074 63.9161 148.577 64.4117C148.09 64.8976 147.534 65.3153 146.908 65.6652C146.243 66.0344 145.567 66.3115 144.882 66.4961C144.206 66.6904 143.427 66.7876 142.543 66.7876C141.073 66.7876 139.801 66.5834 138.728 66.1753C137.665 65.7673 136.786 65.2182 136.091 64.5283C135.396 63.8384 134.874 63.0269 134.527 62.0941C134.189 61.1515 134.02 60.1312 134.02 59.0333C134.02 58.0421 134.204 57.0946 134.571 56.191C134.949 55.2776 135.48 54.4662 136.166 53.7568C136.841 53.0669 137.69 52.5081 138.713 52.0806C139.746 51.653 140.899 51.4393 142.17 51.4393C143.561 51.4393 144.703 51.6044 145.597 51.9348C146.491 52.2651 147.231 52.7218 147.817 53.305C148.383 53.8589 148.796 54.5147 149.054 55.2726C149.312 56.0209 149.441 56.808 149.441 57.634V58.5813H139.369C139.369 60.5735 139.761 62.0893 140.546 63.129C141.331 64.1687 142.577 64.6886 144.286 64.6886C145.22 64.6886 146.059 64.4408 146.804 63.9453C147.549 63.4399 148.185 62.8035 148.711 62.0359L149.844 62.8375ZM144.152 57.2986C144.152 56.7156 144.122 56.118 144.062 55.5059C144.003 54.8937 143.899 54.3932 143.75 54.0045C143.581 53.5478 143.347 53.2029 143.049 52.9698C142.761 52.7365 142.394 52.6199 141.947 52.6199C141.182 52.6199 140.571 52.9989 140.114 53.7568C139.657 54.5147 139.409 55.7147 139.369 57.357L144.152 57.2986ZM174.008 66.3212H165.038V65.2571C165.228 65.2377 165.455 65.2134 165.723 65.1841C165.992 65.155 166.195 65.1065 166.335 65.0385C166.543 64.9316 166.692 64.7761 166.782 64.572C166.871 64.368 166.915 64.0668 166.915 63.6683V56.8468C166.915 55.8556 166.727 55.1123 166.349 54.6168C165.981 54.1114 165.435 53.8589 164.71 53.8589C164.314 53.8589 163.941 53.9171 163.594 54.0337C163.255 54.1504 162.922 54.3204 162.594 54.5438C162.307 54.7383 162.074 54.9374 161.894 55.1414C161.726 55.3456 161.581 55.5253 161.462 55.6808V63.508C161.462 63.8481 161.512 64.1347 161.612 64.368C161.711 64.5914 161.874 64.7614 162.103 64.8782C162.262 64.9656 162.46 65.0432 162.699 65.1113C162.937 65.1794 163.171 65.2279 163.4 65.2571V66.3212H154.34V65.2571C154.589 65.2377 154.837 65.2134 155.086 65.1841C155.344 65.1453 155.562 65.0968 155.741 65.0385C156.059 64.9316 156.278 64.7664 156.397 64.5429C156.516 64.3193 156.575 64.0278 156.575 63.6683V55.1852C156.575 54.884 156.496 54.5875 156.337 54.296C156.178 54.0045 155.969 53.7665 155.712 53.5819C155.532 53.4653 155.304 53.3681 155.025 53.2904C154.758 53.2126 154.459 53.1592 154.132 53.1301V52.066L161.239 51.687L161.462 51.9057V54.0192H161.522C161.801 53.7762 162.138 53.4847 162.535 53.1445C162.933 52.8045 163.301 52.5275 163.638 52.3138C164.006 52.0806 164.488 51.8814 165.083 51.7162C165.679 51.5509 166.315 51.4684 166.99 51.4684C168.609 51.4684 169.822 51.9202 170.626 52.8239C171.44 53.718 171.848 54.9083 171.848 56.395V63.5371C171.848 63.8967 171.903 64.1834 172.011 64.3971C172.121 64.6108 172.324 64.781 172.623 64.9073C172.782 64.9753 172.975 65.0432 173.204 65.1113C173.442 65.1794 173.711 65.2279 174.008 65.2571V66.3212ZM186.968 66.7876C185.587 66.7876 184.365 66.5933 183.303 66.2045C182.25 65.8061 181.381 65.2668 180.696 64.5867C180.009 63.8967 179.498 63.0804 179.161 62.1378C178.822 61.1953 178.654 60.1702 178.654 59.0624C178.654 58.0518 178.857 57.0898 179.264 56.1764C179.682 55.2629 180.242 54.4613 180.949 53.7714C181.674 53.062 182.572 52.4984 183.645 52.0806C184.728 51.653 185.92 51.4393 187.221 51.4393C189.049 51.4393 190.494 51.7793 191.557 52.4596C192.619 53.1301 193.152 54.0386 193.152 55.1852C193.152 55.8849 192.962 56.4485 192.586 56.8759C192.207 57.3036 191.557 57.5173 190.633 57.5173C189.888 57.5173 189.263 57.3424 188.756 56.9927C188.259 56.6428 188.011 56.1861 188.011 55.6225C188.011 55.1464 188.091 54.675 188.249 54.2086C188.408 53.7422 188.503 53.3875 188.532 53.1445C188.423 52.9698 188.285 52.8386 188.115 52.7511C187.946 52.6539 187.683 52.6053 187.325 52.6053C186.878 52.6053 186.47 52.7074 186.104 52.9114C185.737 53.1154 185.393 53.475 185.076 53.9899C184.768 54.4759 184.519 55.127 184.33 55.9431C184.151 56.7594 184.063 57.7409 184.063 58.8875C184.063 60.6172 184.475 62.0115 185.299 63.0707C186.133 64.1299 187.127 64.6595 188.278 64.6595C189.382 64.6595 190.256 64.4214 190.901 63.9453C191.557 63.4593 192.139 62.7744 192.645 61.8901L193.762 62.648C193.454 63.2408 193.086 63.7849 192.659 64.2805C192.233 64.7664 191.721 65.1988 191.125 65.5777C190.498 65.9761 189.864 66.2774 189.218 66.4815C188.571 66.6855 187.822 66.7876 186.968 66.7876ZM213.74 62.8375C213.392 63.3914 212.969 63.9161 212.474 64.4117C211.987 64.8976 211.43 65.3153 210.804 65.6652C210.139 66.0344 209.463 66.3115 208.778 66.4961C208.102 66.6904 207.323 66.7876 206.439 66.7876C204.969 66.7876 203.698 66.5834 202.625 66.1753C201.562 65.7673 200.683 65.2182 199.987 64.5283C199.291 63.8384 198.771 63.0269 198.423 62.0941C198.084 61.1515 197.917 60.1312 197.917 59.0333C197.917 58.0421 198.1 57.0946 198.467 56.191C198.844 55.2776 199.377 54.4662 200.062 53.7568C200.738 53.0669 201.586 52.5081 202.61 52.0806C203.643 51.653 204.795 51.4393 206.067 51.4393C207.457 51.4393 208.6 51.6044 209.494 51.9348C210.388 52.2651 211.128 52.7218 211.714 53.305C212.28 53.8589 212.692 54.5147 212.95 55.2726C213.209 56.0209 213.337 56.808 213.337 57.634V58.5813H203.266C203.266 60.5735 203.658 62.0893 204.442 63.129C205.226 64.1687 206.473 64.6886 208.182 64.6886C209.115 64.6886 209.955 64.4408 210.701 63.9453C211.445 63.4399 212.082 62.8035 212.608 62.0359L213.74 62.8375ZM208.047 57.2986C208.047 56.7156 208.018 56.118 207.959 55.5059C207.899 54.8937 207.794 54.3932 207.646 54.0045C207.477 53.5478 207.243 53.2029 206.946 52.9698C206.658 52.7365 206.29 52.6199 205.843 52.6199C205.078 52.6199 204.467 52.9989 204.01 53.7568C203.553 54.5147 203.305 55.7147 203.266 57.357L208.047 57.2986Z" fill="#F4F900"/>
<path d="M184.913 112H168.098V110.137C168.705 110.12 169.483 110.059 170.43 109.954C171.396 109.849 172.058 109.7 172.415 109.508C172.969 109.175 173.372 108.799 173.622 108.38C173.891 107.942 174.025 107.4 174.025 106.753V79.6768H173.622L160.641 111.397H159.3L146.937 79.0208H146.588V101.243C146.588 103.395 146.722 105.03 146.99 106.149C147.276 107.269 147.705 108.073 148.278 108.563C148.671 108.93 149.484 109.28 150.718 109.613C151.952 109.945 152.756 110.12 153.132 110.137V112H137.764V110.137C138.569 110.067 139.409 109.936 140.285 109.744C141.179 109.551 141.868 109.263 142.35 108.878C142.976 108.388 143.405 107.636 143.638 106.622C143.87 105.607 143.986 103.911 143.986 101.532V82.484C143.986 81.3822 143.852 80.4813 143.584 79.7818C143.316 79.082 142.932 78.5137 142.431 78.0764C141.877 77.6041 141.197 77.2543 140.393 77.0269C139.588 76.7996 138.792 76.6684 138.006 76.6333V74.7706H150.986L161.876 102.686L171.181 79.3358C171.521 78.4787 171.807 77.5866 172.04 76.6596C172.29 75.7151 172.425 75.0854 172.441 74.7706H184.859V76.6333C184.359 76.6508 183.715 76.7296 182.929 76.8695C182.16 77.0095 181.596 77.1407 181.239 77.2631C180.631 77.4729 180.22 77.8228 180.006 78.3125C179.791 78.8022 179.684 79.3358 179.684 79.913V106.753C179.684 107.365 179.791 107.881 180.006 108.301C180.22 108.721 180.631 109.088 181.239 109.403C181.561 109.578 182.133 109.744 182.955 109.901C183.778 110.041 184.431 110.12 184.913 110.137V112Z" fill="#1DEB63"/>
<path d="M199.834 100.625L194.148 100.963L193.97 100.8V99.2723H193.898C193.628 99.5132 193.361 99.7504 193.1 99.9835C192.845 100.209 192.538 100.415 192.181 100.602C191.776 100.811 191.391 100.967 191.025 101.068C190.668 101.169 190.143 101.22 189.452 101.22C188.251 101.22 187.33 100.866 186.686 100.158C186.051 99.4511 185.732 98.4522 185.732 97.1617V91.9144C185.732 91.6113 185.673 91.3664 185.554 91.1798C185.435 90.9855 185.276 90.8144 185.078 90.6667C184.919 90.5501 184.711 90.4684 184.457 90.4219C184.203 90.3674 183.973 90.3325 183.765 90.3169V89.4657L189.546 89.1625L189.678 89.3374V97.0917C189.678 97.8924 189.833 98.4832 190.143 98.8641C190.46 99.245 190.894 99.4355 191.443 99.4355C192.006 99.4355 192.511 99.2917 192.956 99.0041C193.41 98.7165 193.739 98.4093 193.945 98.0829V91.7979C193.945 91.5335 193.893 91.2964 193.791 91.0865C193.687 90.8766 193.536 90.7056 193.338 90.5734C193.194 90.4801 192.988 90.418 192.718 90.3868C192.456 90.3558 192.186 90.3325 191.907 90.3169V89.4657L197.688 89.1625L197.868 89.3374V98.3395C197.868 98.6116 197.923 98.8447 198.034 99.039C198.145 99.2256 198.309 99.385 198.522 99.5171C198.673 99.6104 198.869 99.6765 199.107 99.7153C199.354 99.7465 199.595 99.7659 199.834 99.7737V100.625ZM208.76 101.266C207.988 101.266 207.234 101.154 206.494 100.928C205.763 100.71 205.196 100.477 204.79 100.228L204.433 101.021H203.502L203.348 96.672H204.218C204.337 97.0218 204.535 97.4182 204.814 97.8614C205.092 98.2966 205.409 98.6892 205.768 99.039C206.14 99.3889 206.566 99.6843 207.044 99.9253C207.527 100.166 208.044 100.287 208.592 100.287C209.315 100.287 209.852 100.151 210.202 99.8786C210.559 99.5987 210.737 99.1713 210.737 98.5959C210.737 98.285 210.658 98.0284 210.499 97.8263C210.341 97.6242 210.122 97.4493 209.845 97.3017C209.534 97.1462 209.192 97.0141 208.82 96.9051C208.453 96.7963 208 96.6642 207.46 96.5087C206.92 96.3532 206.455 96.1978 206.066 96.0423C205.684 95.879 205.287 95.6264 204.874 95.2843C204.515 94.9812 204.23 94.6158 204.015 94.1882C203.801 93.7607 203.693 93.2515 203.693 92.6607C203.693 91.5646 204.163 90.6784 205.1 90.002C206.046 89.3257 207.282 88.9875 208.807 88.9875C209.531 88.9875 210.194 89.0614 210.798 89.2092C211.41 89.349 211.923 89.5045 212.335 89.6756L212.585 88.9875H213.491L213.682 92.9639H212.835C212.558 92.1553 212.082 91.4597 211.406 90.8767C210.73 90.2858 210.003 89.9904 209.224 89.9904C208.612 89.9904 208.131 90.1148 207.782 90.3635C207.433 90.6123 207.257 90.9583 207.257 91.4013C207.257 91.9922 207.512 92.4197 208.02 92.684C208.537 92.9483 209.256 93.1971 210.177 93.4303C211.601 93.7879 212.641 94.2776 213.301 94.8996C213.96 95.5136 214.291 96.2988 214.291 97.255C214.291 98.5299 213.778 99.5171 212.753 100.217C211.735 100.916 210.405 101.266 208.76 101.266ZM231.011 98.0829C230.734 98.526 230.395 98.9457 229.998 99.3422C229.609 99.731 229.164 100.065 228.663 100.345C228.131 100.64 227.591 100.862 227.041 101.01C226.501 101.165 225.877 101.243 225.171 101.243C223.994 101.243 222.977 101.08 222.119 100.753C221.27 100.427 220.566 99.9874 220.009 99.4355C219.452 98.8837 219.036 98.2345 218.758 97.4882C218.488 96.7342 218.352 95.9179 218.352 95.0394C218.352 94.2466 218.499 93.4886 218.793 92.7656C219.095 92.0349 219.521 91.3858 220.069 90.8183C220.609 90.2663 221.289 89.8193 222.107 89.4774C222.934 89.1353 223.856 88.9642 224.873 88.9642C225.986 88.9642 226.9 89.0965 227.614 89.3607C228.329 89.625 228.921 89.9904 229.39 90.4568C229.843 90.8999 230.174 91.4247 230.38 92.031C230.586 92.6297 230.689 93.2592 230.689 93.92V94.6779H222.632C222.632 96.2717 222.946 97.4844 223.573 98.316C224.2 99.1478 225.198 99.5638 226.565 99.5638C227.313 99.5638 227.984 99.3656 228.579 98.969C229.176 98.5648 229.684 98.0557 230.105 97.4415L231.011 98.0829ZM226.459 93.6518C226.459 93.1853 226.434 92.7073 226.387 92.2176C226.338 91.7279 226.256 91.3276 226.137 91.0165C226.001 90.6511 225.815 90.3752 225.575 90.1886C225.345 90.002 225.052 89.9087 224.693 89.9087C224.081 89.9087 223.593 90.212 223.227 90.8183C222.862 91.4247 222.664 92.3847 222.632 93.6985L226.459 93.6518ZM250.164 100.625L244.479 100.963L244.299 100.8V99.2723H244.227C243.957 99.5132 243.692 99.7504 243.429 99.9835C243.175 100.209 242.869 100.415 242.511 100.602C242.107 100.811 241.721 100.967 241.356 101.068C240.997 101.169 240.474 101.22 239.781 101.22C238.582 101.22 237.661 100.866 237.017 100.158C236.38 99.4511 236.063 98.4522 236.063 97.1617V91.9144C236.063 91.6113 236.004 91.3664 235.885 91.1798C235.766 90.9855 235.605 90.8144 235.407 90.6667C235.248 90.5501 235.042 90.4684 234.788 90.4219C234.533 90.3674 234.302 90.3325 234.096 90.3169V89.4657L239.877 89.1625L240.009 89.3374V97.0917C240.009 97.8924 240.163 98.4832 240.474 98.8641C240.791 99.245 241.225 99.4355 241.772 99.4355C242.337 99.4355 242.842 99.2917 243.286 99.0041C243.739 98.7165 244.069 98.4093 244.276 98.0829V91.7979C244.276 91.5335 244.224 91.2964 244.121 91.0865C244.017 90.8766 243.867 90.7056 243.667 90.5734C243.525 90.4801 243.318 90.418 243.048 90.3868C242.785 90.3558 242.515 90.3325 242.238 90.3169V89.4657L248.019 89.1625L248.197 89.3374V98.3395C248.197 98.6116 248.254 98.8447 248.364 99.039C248.475 99.2256 248.638 99.385 248.853 99.5171C249.004 99.6104 249.198 99.6765 249.438 99.7153C249.683 99.7465 249.926 99.7659 250.164 99.7737V100.625ZM277.255 100.87H270.151V100.019C270.327 99.9952 270.508 99.9758 270.699 99.9602C270.89 99.9447 271.05 99.9059 271.176 99.8437C271.352 99.7659 271.462 99.6377 271.511 99.4589C271.558 99.2723 271.582 99.0351 271.582 98.7475V93.3021C271.582 92.5013 271.434 91.9028 271.141 91.5062C270.854 91.102 270.441 90.8999 269.901 90.8999C269.559 90.8999 269.254 90.9544 268.982 91.0632C268.722 91.1643 268.479 91.2925 268.256 91.448C268.026 91.6113 267.847 91.7744 267.719 91.9377C267.592 92.101 267.486 92.2409 267.397 92.3576V98.6193C267.397 98.8992 267.429 99.1284 267.493 99.3072C267.565 99.4783 267.692 99.6143 267.875 99.7153C268.001 99.7853 268.145 99.8475 268.303 99.9019C268.471 99.9564 268.645 99.9952 268.828 100.019V100.87H262.022V100.019C262.173 100.003 262.356 99.9835 262.57 99.9602C262.785 99.937 262.944 99.898 263.047 99.8437C263.214 99.7581 263.322 99.6338 263.369 99.4705C263.424 99.3072 263.452 99.0663 263.452 98.7475V93.3021C263.452 92.5013 263.305 91.9028 263.011 91.5062C262.725 91.102 262.312 90.8999 261.772 90.8999C261.43 90.8999 261.123 90.9544 260.853 91.0632C260.591 91.1643 260.35 91.2925 260.127 91.448C259.897 91.6113 259.718 91.7744 259.59 91.9377C259.463 92.101 259.357 92.2409 259.268 92.3576V98.6193C259.268 98.8914 259.305 99.1168 259.376 99.2956C259.447 99.4744 259.575 99.6143 259.758 99.7153C259.884 99.7853 260.028 99.8475 260.187 99.9019C260.353 99.9564 260.528 99.9952 260.711 100.019V100.87H253.571V100.019C253.777 100.003 253.98 99.9835 254.178 99.9602C254.378 99.937 254.549 99.898 254.691 99.8437C254.946 99.7504 255.121 99.6181 255.216 99.4472C255.312 99.2684 255.359 99.0351 255.359 98.7475V91.961C255.359 91.7123 255.292 91.4713 255.156 91.2381C255.02 90.9971 254.859 90.8105 254.668 90.6784C254.525 90.5852 254.341 90.5074 254.119 90.4452C253.905 90.3829 253.666 90.3402 253.405 90.3169V89.4657L259.09 89.1625L259.268 89.3374V90.9816H259.317C259.538 90.7872 259.801 90.5578 260.103 90.2935C260.412 90.0216 260.702 89.8038 260.972 89.6405C261.267 89.4539 261.645 89.2986 262.106 89.1741C262.567 89.0498 263.07 88.9875 263.619 88.9875C264.526 88.9875 265.279 89.182 265.884 89.5707C266.495 89.9516 266.929 90.4607 267.184 91.0982H267.29C267.521 90.8883 267.803 90.6434 268.137 90.3635C268.471 90.0759 268.776 89.8466 269.054 89.6756C269.364 89.4813 269.757 89.318 270.235 89.1859C270.72 89.0536 271.236 88.9875 271.784 88.9875C272.984 88.9875 273.906 89.3335 274.55 90.0254C275.201 90.7172 275.528 91.7007 275.528 92.9755V98.6426C275.528 98.9302 275.571 99.1635 275.658 99.3422C275.746 99.5132 275.905 99.6455 276.135 99.7387C276.262 99.7931 276.417 99.8475 276.6 99.9019C276.791 99.9564 277.009 99.9952 277.255 100.019V100.87Z" fill="#1DEB63"/>
</g>
<defs>
<filter id="filter0_d_425_1509" x="0.94" y="0" width="279.375" height="118.12" filterUnits="userSpaceOnUse" color-interpolation-filters="sRGB">
<feFlood flood-opacity="0" result="BackgroundImageFix"/>
<feColorMatrix in="SourceAlpha" type="matrix" values="0 0 0 0 0 0 0 0 0 0 0 0 0 0 0 0 0 0 127 0" result="hardAlpha"/>
<feOffset dy="3.06"/>
<feGaussianBlur stdDeviation="1.53"/>
<feComposite in2="hardAlpha" operator="out"/>
<feColorMatrix type="matrix" values="0 0 0 0 0 0 0 0 0 0 0 0 0 0 0 0 0 0 0.25 0"/>
<feBlend mode="normal" in2="BackgroundImageFix" result="effect1_dropShadow_425_1509"/>
<feBlend mode="normal" in="SourceGraphic" in2="effect1_dropShadow_425_1509" result="shape"/>
</filter>
</defs>
</svg>
