<svg width="141" height="69" viewBox="0 0 141 69" fill="none" xmlns="http://www.w3.org/2000/svg">
<g clip-path="url(#clip0_335_7486)">
<g filter="url(#filter0_d_335_7486)">
<path d="M11.7818 25.1851C10.6655 25.1851 9.59325 24.9653 8.56493 24.5259C7.54538 24.0864 6.64014 23.4536 5.84913 22.6274C5.0669 21.8013 4.44288 20.7949 3.97705 19.6084C3.51123 18.4131 3.27832 17.0683 3.27832 15.5742C3.27832 14.08 3.50684 12.7265 3.96387 11.5137C4.4209 10.292 5.05371 9.24172 5.86231 8.3628C6.66211 7.49267 7.60695 6.82031 8.69678 6.3457C9.7866 5.87109 10.9512 5.63379 12.1904 5.63379C13.1133 5.63379 13.9483 5.74804 14.6954 5.97656C15.4424 6.20507 16.1543 6.52588 16.8311 6.93896L17.3716 6.04248H18.4263L18.545 12.7134H17.4639C17.3233 12.063 17.1123 11.3599 16.8311 10.604C16.5498 9.83932 16.2203 9.19335 15.8423 8.66602C15.4204 8.06835 14.9195 7.60252 14.3393 7.26855C13.7593 6.92578 13.0957 6.75439 12.3486 6.75439C11.4961 6.75439 10.7007 6.94336 9.9624 7.32129C9.23288 7.6992 8.6001 8.25735 8.064 8.99557C7.55423 9.70755 7.1543 10.6128 6.86426 11.7114C6.57423 12.8101 6.42921 14.0361 6.42921 15.3896C6.42921 16.585 6.57861 17.6836 6.87744 18.6856C7.18506 19.6787 7.62015 20.5532 8.18265 21.3091C8.74515 22.0561 9.40868 22.6406 10.1734 23.0625C10.9468 23.4844 11.8081 23.6953 12.7574 23.6953C13.4693 23.6953 14.124 23.5855 14.7217 23.3657C15.3194 23.1372 15.8379 22.8384 16.2773 22.4692C16.7168 22.0825 17.1035 21.643 17.4375 21.1509C17.7715 20.6587 18.044 20.1226 18.2549 19.5424L19.2437 20.0171C18.4878 21.8716 17.4859 23.1987 16.2378 23.9985C14.9897 24.7895 13.5044 25.1851 11.7818 25.1851Z" fill="#FF8652"/>
<path d="M26.718 15.0025C27.007 15.272 27.2278 15.5943 27.3801 15.9693C27.5325 16.3443 27.6086 16.7505 27.6086 17.188C27.6086 17.6216 27.5325 18.0318 27.3801 18.4185C27.2317 18.8013 27.013 19.1294 26.7238 19.4029C26.4153 19.6958 26.0461 19.9204 25.6165 20.0767C25.1907 20.233 24.7024 20.311 24.1516 20.311C23.675 20.311 23.2356 20.2427 22.8332 20.106C22.4348 19.9693 22.0813 19.7642 21.7727 19.4908C21.4758 19.229 21.2414 18.9067 21.0696 18.5239C20.8977 18.1372 20.8117 17.7056 20.8117 17.229C20.8117 16.7602 20.886 16.3443 21.0344 15.981C21.1867 15.6138 21.4133 15.2876 21.7141 15.0025C22.0032 14.729 22.3586 14.5181 22.7805 14.3696C23.2063 14.2173 23.6809 14.1412 24.2044 14.1412C24.7512 14.1412 25.2317 14.2173 25.6457 14.3696C26.0637 14.5181 26.4211 14.729 26.718 15.0025ZM25.218 19.063C25.3039 18.8443 25.3664 18.5786 25.4055 18.2662C25.4485 17.9536 25.47 17.5903 25.47 17.1763C25.47 16.9029 25.4504 16.5904 25.4113 16.2388C25.3723 15.8872 25.3137 15.6099 25.2356 15.4068C25.1419 15.1606 25.011 14.9673 24.843 14.8267C24.679 14.686 24.4699 14.6158 24.2161 14.6158C23.9387 14.6158 23.716 14.6919 23.5481 14.8443C23.384 14.9966 23.257 15.1939 23.1672 15.436C23.0852 15.6587 23.0286 15.9205 22.9973 16.2212C22.966 16.5181 22.9504 16.8286 22.9504 17.1529C22.9504 17.5786 22.9641 17.9321 22.9915 18.2134C23.0188 18.4907 23.0852 18.77 23.1907 19.0513C23.2805 19.2935 23.4094 19.4849 23.5774 19.6255C23.7454 19.7662 23.9582 19.8364 24.2161 19.8364C24.4504 19.8364 24.6516 19.772 24.8196 19.6431C24.9875 19.5103 25.1203 19.3169 25.218 19.063ZM41.2071 20.1235H37.7149V19.6958C37.8008 19.6841 37.8907 19.6744 37.9844 19.6665C38.0782 19.6587 38.1563 19.6392 38.2188 19.6079C38.3047 19.5688 38.3594 19.5044 38.3828 19.4146C38.4063 19.3208 38.418 19.2017 38.418 19.0571V16.3208C38.418 15.9185 38.3458 15.6177 38.2012 15.4185C38.0606 15.2154 37.8574 15.1138 37.5919 15.1138C37.4239 15.1138 37.2735 15.1411 37.1407 15.1958C37.0117 15.2466 36.8926 15.3111 36.7832 15.3892C36.67 15.4712 36.5821 15.5533 36.5196 15.6352C36.457 15.7173 36.4043 15.7876 36.3613 15.8462V18.9927C36.3613 19.1333 36.377 19.2486 36.4082 19.3384C36.4434 19.4243 36.5059 19.4927 36.5957 19.5435C36.6583 19.5787 36.7285 19.6099 36.8067 19.6372C36.8887 19.6645 36.9746 19.6841 37.0645 19.6958V20.1235H33.7188V19.6958C33.793 19.688 33.8828 19.6783 33.9883 19.6665C34.0938 19.6548 34.1719 19.6353 34.2227 19.6079C34.3047 19.5649 34.3575 19.5025 34.3809 19.4204C34.4083 19.3384 34.4219 19.2173 34.4219 19.0571V16.3208C34.4219 15.9185 34.3496 15.6177 34.2051 15.4185C34.0645 15.2154 33.8614 15.1138 33.5957 15.1138C33.4278 15.1138 33.2774 15.1411 33.1446 15.1958C33.0157 15.2466 32.8965 15.3111 32.7871 15.3892C32.6739 15.4712 32.586 15.5533 32.5234 15.6352C32.461 15.7173 32.4082 15.7876 32.3653 15.8462V18.9927C32.3653 19.1294 32.3828 19.2427 32.418 19.3325C32.4532 19.4224 32.5156 19.4927 32.6055 19.5435C32.668 19.5787 32.7383 19.6099 32.8165 19.6372C32.8984 19.6645 32.9844 19.6841 33.0742 19.6958V20.1235H29.5645V19.6958C29.6661 19.688 29.7657 19.6783 29.8633 19.6665C29.961 19.6548 30.045 19.6353 30.1153 19.6079C30.2403 19.561 30.3262 19.4947 30.3731 19.4087C30.42 19.3189 30.4434 19.2017 30.4434 19.0571V15.647C30.4434 15.522 30.4102 15.4009 30.3438 15.2837C30.2774 15.1626 30.1973 15.0688 30.1036 15.0025C30.0332 14.9556 29.9434 14.9165 29.834 14.8852C29.7286 14.854 29.6113 14.8325 29.4825 14.8208V14.3931L32.2774 14.2408L32.3653 14.3287V15.1548H32.3887C32.4981 15.0571 32.627 14.9419 32.7754 14.8091C32.9278 14.6724 33.0703 14.563 33.2032 14.481C33.3477 14.3872 33.5332 14.3091 33.7598 14.2466C33.9864 14.1841 34.2344 14.1529 34.504 14.1529C34.9492 14.1529 35.3203 14.2505 35.6172 14.4458C35.918 14.6372 36.1309 14.8931 36.2559 15.2134H36.3086C36.4219 15.1079 36.5606 14.9849 36.7246 14.8443C36.8887 14.6998 37.0391 14.5845 37.1758 14.4985C37.3282 14.4009 37.5215 14.3188 37.7559 14.2525C37.9942 14.1861 38.2481 14.1529 38.5176 14.1529C39.1075 14.1529 39.5606 14.3267 39.877 14.6743C40.1973 15.022 40.3575 15.5161 40.3575 16.1568V19.0044C40.3575 19.1489 40.3789 19.2661 40.4219 19.356C40.4649 19.4419 40.543 19.5083 40.6563 19.5552C40.7188 19.5826 40.795 19.6099 40.8848 19.6372C40.9786 19.6645 41.086 19.6841 41.2071 19.6958V20.1235ZM54.5946 20.1235H51.1024V19.6958C51.1883 19.6841 51.2782 19.6744 51.3719 19.6665C51.4657 19.6587 51.5438 19.6392 51.6063 19.6079C51.6922 19.5688 51.7469 19.5044 51.7703 19.4146C51.7938 19.3208 51.8055 19.2017 51.8055 19.0571V16.3208C51.8055 15.9185 51.7333 15.6177 51.5887 15.4185C51.4481 15.2154 51.2449 15.1138 50.9794 15.1138C50.8114 15.1138 50.661 15.1411 50.5282 15.1958C50.3992 15.2466 50.2801 15.3111 50.1707 15.3892C50.0575 15.4712 49.9696 15.5533 49.9071 15.6352C49.8445 15.7173 49.7918 15.7876 49.7488 15.8462V18.9927C49.7488 19.1333 49.7645 19.2486 49.7957 19.3384C49.8309 19.4243 49.8934 19.4927 49.9832 19.5435C50.0458 19.5787 50.116 19.6099 50.1942 19.6372C50.2762 19.6645 50.3621 19.6841 50.452 19.6958V20.1235H47.1063V19.6958C47.1805 19.688 47.2703 19.6783 47.3758 19.6665C47.4813 19.6548 47.5594 19.6353 47.6102 19.6079C47.6922 19.5649 47.745 19.5025 47.7684 19.4204C47.7958 19.3384 47.8094 19.2173 47.8094 19.0571V16.3208C47.8094 15.9185 47.7371 15.6177 47.5926 15.4185C47.452 15.2154 47.2489 15.1138 46.9832 15.1138C46.8153 15.1138 46.6649 15.1411 46.5321 15.1958C46.4032 15.2466 46.284 15.3111 46.1746 15.3892C46.0614 15.4712 45.9735 15.5533 45.9109 15.6352C45.8485 15.7173 45.7957 15.7876 45.7528 15.8462V18.9927C45.7528 19.1294 45.7703 19.2427 45.8055 19.3325C45.8407 19.4224 45.9031 19.4927 45.993 19.5435C46.0555 19.5787 46.1258 19.6099 46.204 19.6372C46.2859 19.6645 46.3719 19.6841 46.4617 19.6958V20.1235H42.952V19.6958C43.0536 19.688 43.1532 19.6783 43.2508 19.6665C43.3485 19.6548 43.4325 19.6353 43.5028 19.6079C43.6278 19.561 43.7137 19.4947 43.7606 19.4087C43.8075 19.3189 43.8309 19.2017 43.8309 19.0571V15.647C43.8309 15.522 43.7977 15.4009 43.7313 15.2837C43.6649 15.1626 43.5848 15.0688 43.4911 15.0025C43.4207 14.9556 43.3309 14.9165 43.2215 14.8852C43.1161 14.854 42.9988 14.8325 42.87 14.8208V14.3931L45.6649 14.2408L45.7528 14.3287V15.1548H45.7762C45.8856 15.0571 46.0145 14.9419 46.1629 14.8091C46.3153 14.6724 46.4578 14.563 46.5907 14.481C46.7352 14.3872 46.9207 14.3091 47.1473 14.2466C47.3739 14.1841 47.6219 14.1529 47.8915 14.1529C48.3367 14.1529 48.7078 14.2505 49.0047 14.4458C49.3055 14.6372 49.5184 14.8931 49.6434 15.2134H49.6961C49.8094 15.1079 49.9481 14.9849 50.1121 14.8443C50.2762 14.6998 50.4266 14.5845 50.5633 14.4985C50.7157 14.4009 50.909 14.3188 51.1434 14.2525C51.3817 14.1861 51.6356 14.1529 51.9051 14.1529C52.495 14.1529 52.9481 14.3267 53.2645 14.6743C53.5848 15.022 53.745 15.5161 53.745 16.1568V19.0044C53.745 19.1489 53.7664 19.2661 53.8094 19.356C53.8524 19.4419 53.9305 19.5083 54.0438 19.5552C54.1063 19.5826 54.1825 19.6099 54.2723 19.6372C54.3661 19.6645 54.4735 19.6841 54.5946 19.6958V20.1235ZM63.9859 20.0005L61.1911 20.1704L61.1032 20.0884V19.3208H61.068C60.9352 19.4419 60.8044 19.561 60.6754 19.6783C60.5504 19.7915 60.4 19.895 60.2242 19.9888C60.025 20.0943 59.8356 20.1724 59.6559 20.2231C59.4801 20.2739 59.2223 20.2993 58.8825 20.2993C58.2926 20.2993 57.8395 20.1216 57.5231 19.7662C57.2106 19.4107 57.0544 18.9087 57.0544 18.2602V15.6235C57.0544 15.4712 57.025 15.3481 56.9665 15.2544C56.9078 15.1567 56.8297 15.0708 56.7321 14.9966C56.6539 14.938 56.5524 14.897 56.4274 14.8735C56.3024 14.8462 56.1891 14.8286 56.0875 14.8208V14.3931L58.9294 14.2408L58.9938 14.3287V18.2251C58.9938 18.6274 59.07 18.9244 59.2223 19.1158C59.3785 19.3072 59.5915 19.4029 59.8609 19.4029C60.1383 19.4029 60.3864 19.3306 60.6051 19.186C60.8278 19.0415 60.9899 18.8872 61.0915 18.7231V15.565C61.0915 15.4321 61.066 15.313 61.0153 15.2075C60.9645 15.1021 60.8902 15.0161 60.7926 14.9497C60.7223 14.9029 60.6208 14.8716 60.4879 14.856C60.359 14.8404 60.2262 14.8286 60.0895 14.8208V14.3931L62.9313 14.2408L63.0192 14.3287V18.8521C63.0192 18.9888 63.0465 19.106 63.1012 19.2037C63.1559 19.2974 63.2359 19.3774 63.3415 19.4439C63.4156 19.4908 63.5113 19.5239 63.6286 19.5435C63.7496 19.5591 63.8688 19.5688 63.9859 19.5727V20.0005ZM73.395 20.1235H69.8676V19.6958C69.9418 19.688 70.0317 19.6783 70.1371 19.6665C70.2426 19.6548 70.3227 19.6353 70.3774 19.6079C70.4594 19.5649 70.518 19.5025 70.5532 19.4204C70.5883 19.3384 70.6059 19.2173 70.6059 19.0571V16.315C70.6059 15.9165 70.5317 15.6177 70.3832 15.4185C70.2387 15.2154 70.0239 15.1138 69.7387 15.1138C69.5824 15.1138 69.436 15.1372 69.2992 15.1841C69.1664 15.231 69.0356 15.2993 68.9067 15.3892C68.7934 15.4673 68.7016 15.5474 68.6313 15.6294C68.5649 15.7114 68.5082 15.7837 68.4613 15.8462V18.9927C68.4613 19.1294 68.4809 19.2446 68.52 19.3384C68.559 19.4282 68.6235 19.4966 68.7133 19.5435C68.7758 19.5787 68.854 19.6099 68.9477 19.6372C69.0415 19.6645 69.1333 19.6841 69.2231 19.6958V20.1235H65.6606V19.6958C65.7583 19.688 65.8559 19.6783 65.9536 19.6665C66.0551 19.6509 66.1411 19.6314 66.2113 19.6079C66.3364 19.5649 66.4223 19.4986 66.4692 19.4087C66.5161 19.3189 66.5395 19.2017 66.5395 19.0571V15.647C66.5395 15.5259 66.5083 15.4068 66.4457 15.2896C66.3832 15.1724 66.3012 15.0767 66.1996 15.0025C66.1294 14.9556 66.0395 14.9165 65.9301 14.8852C65.8246 14.854 65.7075 14.8325 65.5786 14.8208V14.3931L68.3734 14.2408L68.4613 14.3287V15.1783H68.4848C68.5942 15.0806 68.727 14.9634 68.8832 14.8267C69.0395 14.6899 69.184 14.5786 69.3169 14.4927C69.4614 14.3989 69.6508 14.3188 69.8852 14.2525C70.1196 14.1861 70.3696 14.1529 70.6352 14.1529C71.2719 14.1529 71.7484 14.3345 72.0649 14.6977C72.3852 15.0571 72.5453 15.5356 72.5453 16.1333V19.0044C72.5453 19.1489 72.5668 19.2642 72.6098 19.3501C72.6528 19.4361 72.7328 19.5044 72.85 19.5552C72.9125 19.5826 72.9887 19.6099 73.0786 19.6372C73.1723 19.6645 73.2778 19.6841 73.395 19.6958V20.1235ZM78.849 20.1235H75.1455V19.6958C75.2475 19.688 75.3472 19.6783 75.4447 19.6665C75.5422 19.6548 75.6262 19.6353 75.6967 19.6079C75.8212 19.561 75.9097 19.4947 75.96 19.4087C76.011 19.3189 76.0365 19.2017 76.0365 19.0571V15.647C76.0365 15.5103 76.005 15.3911 75.9427 15.2896C75.8805 15.1841 75.8017 15.1001 75.708 15.0376C75.6382 14.9908 75.5302 14.9458 75.3862 14.9029C75.2452 14.8599 75.1162 14.8325 74.9992 14.8208V14.3931L77.8702 14.2408L77.958 14.3287V18.981C77.958 19.1177 77.9872 19.2349 78.0465 19.3325C78.105 19.4263 78.189 19.4966 78.2977 19.5435C78.3765 19.5787 78.462 19.6099 78.5557 19.6372C78.6495 19.6645 78.747 19.6841 78.849 19.6958V20.1235ZM77.9932 12.1314C77.9932 12.4282 77.8785 12.6821 77.6475 12.8931C77.421 13.1001 77.1517 13.2037 76.839 13.2037C76.5225 13.2037 76.2495 13.1001 76.0185 12.8931C75.792 12.6821 75.6787 12.4282 75.6787 12.1314C75.6787 11.8345 75.792 11.5806 76.0185 11.3696C76.2495 11.1587 76.5225 11.0533 76.839 11.0533C77.1555 11.0533 77.427 11.1587 77.6535 11.3696C77.88 11.5806 77.9932 11.8345 77.9932 12.1314ZM84.9472 19.854C84.6975 19.9634 84.4297 20.0611 84.1447 20.147C83.8597 20.2369 83.5117 20.2818 83.1015 20.2818C82.4925 20.2818 82.0387 20.1333 81.7425 19.8364C81.4492 19.5396 81.303 19.1158 81.303 18.565V14.9673H80.2477V14.3345H81.3262V12.5591H83.2305V14.3345H84.8715V14.9673H83.2425V18.1783C83.2425 18.6352 83.3047 18.9595 83.43 19.1509C83.559 19.3423 83.787 19.438 84.1155 19.438C84.2205 19.438 84.3675 19.4302 84.555 19.4146C84.7425 19.399 84.873 19.3813 84.9472 19.3618V19.854ZM93.1785 14.7388C93.003 14.7661 92.8312 14.8325 92.6632 14.938C92.499 15.0435 92.3625 15.2075 92.253 15.4302C91.917 16.1411 91.5712 16.8989 91.2157 17.7037C90.8602 18.5044 90.4657 19.3716 90.0322 20.3052C89.79 20.8286 89.5552 21.2466 89.3287 21.5591C89.1022 21.8716 88.8892 22.1119 88.6905 22.2798C88.503 22.4361 88.317 22.5493 88.134 22.6196C87.9502 22.69 87.7642 22.7251 87.5767 22.7251C87.2062 22.7251 86.9047 22.6216 86.6745 22.4146C86.448 22.2076 86.3347 21.9751 86.3347 21.7173C86.3347 21.6079 86.3467 21.5064 86.37 21.4126C86.397 21.3189 86.4517 21.2212 86.5342 21.1196C86.5965 21.0337 86.6925 20.9595 86.8215 20.897C86.9542 20.8384 87.1027 20.8091 87.2662 20.8091C87.4852 20.8091 87.6945 20.8852 87.8932 21.0376C88.0927 21.19 88.2997 21.4009 88.5142 21.6704C88.6432 21.5415 88.8015 21.3481 88.989 21.0904C89.1802 20.8364 89.3212 20.5747 89.4112 20.3052C88.9462 19.3286 88.5337 18.4829 88.1745 17.7681C87.8152 17.0494 87.4132 16.2486 86.9677 15.3658C86.8702 15.1783 86.739 15.0337 86.5747 14.9321C86.4112 14.8267 86.2372 14.7622 86.0535 14.7388V14.311H89.6392V14.7388C89.5065 14.7427 89.3527 14.772 89.1765 14.8267C89.0047 14.8813 88.9185 14.9517 88.9185 15.0376C88.9185 15.0688 88.9245 15.104 88.9365 15.1431C88.9477 15.1783 88.9695 15.231 89.001 15.3013C89.1337 15.5747 89.3212 15.9556 89.5635 16.4439C89.8095 16.9282 90.0945 17.4966 90.4185 18.1489C90.6607 17.5942 90.8662 17.1177 91.0342 16.7193C91.206 16.3169 91.3717 15.9224 91.5322 15.5356C91.5712 15.438 91.5922 15.3619 91.5967 15.3071C91.6042 15.2485 91.608 15.2095 91.608 15.19C91.608 15.1196 91.5727 15.0591 91.503 15.0083C91.4362 14.9536 91.356 14.9068 91.2622 14.8677C91.1647 14.8286 91.071 14.7994 90.981 14.7798C90.8917 14.7603 90.8175 14.7466 90.759 14.7388V14.311H93.1785V14.7388Z" fill="#FF8652"/>
<path d="M48.0329 34.3697C48.4285 34.8091 48.7185 35.2926 48.9031 35.8199C49.0964 36.3385 49.1931 36.9449 49.1931 37.6393C49.1931 39.2916 48.5823 40.6539 47.3606 41.7262C46.1389 42.7984 44.6228 43.3345 42.8122 43.3345C41.9773 43.3345 41.1423 43.2071 40.3074 42.9523C39.4724 42.6886 38.7517 42.3721 38.1453 42.003L37.5784 42.9654H36.5236L36.3391 36.5582H37.407C37.6267 37.3492 37.8816 38.0655 38.1716 38.7071C38.4704 39.3399 38.8615 39.9332 39.345 40.4869C39.802 41.0054 40.3337 41.4185 40.9402 41.7262C41.5554 42.0337 42.2673 42.1876 43.0759 42.1876C43.6824 42.1876 44.2097 42.1085 44.6579 41.9503C45.115 41.7921 45.4841 41.5679 45.7654 41.2779C46.0466 40.9879 46.2531 40.6495 46.385 40.2628C46.5256 39.8673 46.5959 39.4147 46.5959 38.9049C46.5959 38.1578 46.385 37.4635 45.9631 36.8218C45.5413 36.1714 44.9128 35.6793 44.0779 35.3453C43.5066 35.1168 42.8518 34.8663 42.1135 34.5938C41.3752 34.3126 40.738 34.0489 40.2019 33.8028C39.1472 33.3282 38.3254 32.7085 37.7365 31.9439C37.1565 31.1705 36.8665 30.1642 36.8665 28.9249C36.8665 28.213 37.0114 27.5494 37.3015 26.9341C37.5916 26.3189 38.0047 25.7696 38.5408 25.2862C39.0505 24.8292 39.6525 24.4732 40.3469 24.2183C41.0413 23.9547 41.7664 23.8228 42.5222 23.8228C43.3835 23.8228 44.1526 23.9547 44.8294 24.2183C45.5149 24.482 46.1389 24.7897 46.7014 25.1412L47.242 24.2447H48.2966L48.4021 30.4542H47.3342C47.1409 29.7423 46.9211 29.0611 46.675 28.4107C46.4377 27.7603 46.1257 27.1714 45.739 26.6441C45.361 26.1343 44.8996 25.7301 44.3547 25.4312C43.8098 25.1236 43.1419 24.9698 42.3508 24.9698C41.5159 24.9698 40.8039 25.2379 40.215 25.774C39.6262 26.3101 39.3318 26.9649 39.3318 27.7384C39.3318 28.5469 39.5207 29.2193 39.8986 29.7554C40.2766 30.2828 40.8259 30.7179 41.5466 31.0606C42.1882 31.3682 42.8167 31.6363 43.4319 31.8648C44.0559 32.0845 44.6579 32.3218 45.238 32.5768C45.7654 32.8053 46.2707 33.0646 46.7542 33.3546C47.2463 33.6446 47.6726 33.983 48.0329 34.3697Z" fill="#F4F900"/>
<path d="M55.0071 39.194C54.3284 39.194 53.7278 39.0964 53.2053 38.901C52.6878 38.7008 52.2606 38.4298 51.9236 38.0881C51.5867 37.7413 51.3352 37.3312 51.1692 36.8575C51.0032 36.3839 50.9202 35.8688 50.9202 35.3122C50.9202 34.8043 51.0203 34.321 51.2205 33.862C51.4256 33.403 51.7014 33.0001 52.0482 32.6535C52.4046 32.297 52.8465 32.0138 53.3738 31.8039C53.9061 31.589 54.4919 31.4816 55.1316 31.4816C56.03 31.4816 56.7405 31.6525 57.263 31.9943C57.7854 32.3312 58.0467 32.7877 58.0467 33.3639C58.0467 33.7155 57.9539 33.9987 57.7683 34.2135C57.5828 34.4284 57.263 34.5358 56.8089 34.5358C56.4426 34.5358 56.1351 34.4479 55.886 34.2721C55.6419 34.0963 55.5198 33.8668 55.5198 33.5836C55.5198 33.3444 55.5589 33.1075 55.637 32.8732C55.7151 32.6388 55.7615 32.4606 55.7762 32.3385C55.7224 32.2507 55.6541 32.1847 55.5711 32.1408C55.488 32.092 55.3587 32.0675 55.1829 32.0675C54.9632 32.0675 54.763 32.1188 54.5823 32.2213C54.4016 32.3239 54.2332 32.5045 54.0769 32.7633C53.9256 33.0075 53.8035 33.3346 53.7108 33.7447C53.6229 34.1549 53.5789 34.6481 53.5789 35.2243C53.5789 36.0934 53.7816 36.7941 54.1868 37.3263C54.597 37.8586 55.0852 38.1247 55.6516 38.1247C56.1936 38.1247 56.6233 38.005 56.9407 37.7658C57.263 37.5216 57.5486 37.1774 57.7977 36.733L58.347 37.1139C58.1956 37.4118 58.0149 37.6852 57.8049 37.9342C57.595 38.1784 57.3435 38.3956 57.0506 38.5861C56.7429 38.7862 56.4305 38.9377 56.1131 39.0402C55.7957 39.1427 55.427 39.194 55.0071 39.194ZM64.9227 38.9596H60.2937V38.425C60.4207 38.4152 60.5452 38.403 60.6672 38.3883C60.7893 38.3737 60.8943 38.3493 60.9822 38.3151C61.1385 38.2565 61.2483 38.1735 61.3118 38.0661C61.3753 37.9537 61.407 37.8073 61.407 37.6266V33.3639C61.407 33.193 61.368 33.0441 61.2898 32.9171C61.2117 32.7853 61.1141 32.6803 60.9969 32.6022C60.909 32.5436 60.7747 32.4874 60.594 32.4337C60.4182 32.38 60.2571 32.3458 60.1107 32.3312V31.7965L63.6995 31.6061L63.8094 31.716V37.5314C63.8094 37.7023 63.846 37.8487 63.9192 37.9708C63.9924 38.0881 64.0974 38.1759 64.2342 38.2345C64.3318 38.2785 64.4392 38.3175 64.5564 38.3517C64.6736 38.3859 64.7957 38.4103 64.9227 38.425V38.9596ZM63.8533 28.9694C63.8533 29.3404 63.7092 29.6578 63.4212 29.9215C63.138 30.1803 62.8011 30.3097 62.4104 30.3097C62.0149 30.3097 61.6731 30.1803 61.3851 29.9215C61.1019 29.6578 60.9602 29.3404 60.9602 28.9694C60.9602 28.5983 61.1019 28.2809 61.3851 28.0172C61.6731 27.7536 62.0149 27.6217 62.4104 27.6217C62.8059 27.6217 63.1453 27.7536 63.4285 28.0172C63.7117 28.2809 63.8533 28.5983 63.8533 28.9694ZM74.97 37.2091C74.7991 37.4875 74.5916 37.7511 74.3475 38.0002C74.1082 38.2443 73.8348 38.4542 73.5271 38.63C73.2 38.8156 72.8679 38.9548 72.531 39.0475C72.199 39.1452 71.8157 39.194 71.3811 39.194C70.6585 39.194 70.0334 39.0914 69.5061 38.8864C68.9837 38.6813 68.5515 38.4054 68.2097 38.0587C67.868 37.7121 67.6116 37.3043 67.4407 36.8356C67.2747 36.3619 67.1917 35.8492 67.1917 35.2975C67.1917 34.7995 67.282 34.3234 67.4627 33.8693C67.6482 33.4103 67.9095 33.0026 68.2464 32.6461C68.5784 32.2995 68.9959 32.0187 69.4988 31.8039C70.0066 31.589 70.573 31.4816 71.1981 31.4816C71.8816 31.4816 72.4431 31.5646 72.8826 31.7306C73.3221 31.8966 73.6858 32.1261 73.9739 32.4191C74.2522 32.6974 74.4549 33.027 74.5818 33.4078C74.7088 33.7838 74.7722 34.1794 74.7722 34.5944V35.0704H69.8211C69.8211 36.0715 70.014 36.8332 70.3997 37.3556C70.7854 37.8781 71.3982 38.1393 72.2381 38.1393C72.6971 38.1393 73.1096 38.0148 73.4759 37.7658C73.8421 37.5118 74.1545 37.192 74.4134 36.8063L74.97 37.2091ZM72.1722 34.4259C72.1722 34.1329 72.1575 33.8326 72.1282 33.5251C72.0989 33.2174 72.0476 32.9659 71.9744 32.7706C71.8913 32.5411 71.7766 32.3678 71.6301 32.2507C71.4885 32.1334 71.3079 32.0749 71.0882 32.0749C70.7122 32.0749 70.4119 32.2653 70.1873 32.6461C69.9627 33.027 69.8406 33.63 69.8211 34.4552L72.1722 34.4259ZM86.8485 38.9596H82.4393V38.425C82.5323 38.4152 82.644 38.403 82.776 38.3883C82.908 38.3737 83.0078 38.3493 83.0768 38.3151C83.1788 38.2614 83.2523 38.1832 83.2965 38.0807C83.34 37.9782 83.3618 37.8268 83.3618 37.6266V34.1989C83.3618 33.7008 83.2695 33.3273 83.0835 33.0783C82.9028 32.8243 82.6343 32.6974 82.278 32.6974C82.083 32.6974 81.9 32.7267 81.729 32.7853C81.5625 32.8439 81.399 32.9293 81.2378 33.0416C81.0968 33.1393 80.982 33.2394 80.8935 33.3419C80.811 33.4445 80.7398 33.5348 80.6813 33.613V37.546C80.6813 37.717 80.706 37.861 80.7548 37.9782C80.8035 38.0905 80.8838 38.1759 80.9963 38.2345C81.0743 38.2785 81.1718 38.3175 81.2895 38.3517C81.4065 38.3859 81.5213 38.4103 81.6338 38.425V38.9596H77.1803V38.425C77.3025 38.4152 77.4248 38.403 77.547 38.3883C77.6738 38.3688 77.781 38.3444 77.8688 38.3151C78.0255 38.2614 78.1328 38.1784 78.1913 38.0661C78.2498 37.9537 78.279 37.8073 78.279 37.6266V33.3639C78.279 33.2125 78.24 33.0636 78.162 32.9171C78.084 32.7706 77.9813 32.651 77.8545 32.5582C77.766 32.4997 77.6543 32.4508 77.517 32.4118C77.3858 32.3727 77.2388 32.3458 77.0783 32.3312V31.7965L80.5718 31.6061L80.6813 31.716V32.778H80.7105C80.8478 32.6559 81.0135 32.5094 81.2085 32.3385C81.4043 32.1676 81.585 32.0284 81.7508 31.921C81.9315 31.8039 82.1685 31.7038 82.461 31.6207C82.7543 31.5377 83.067 31.4962 83.3985 31.4962C84.1943 31.4962 84.7905 31.7233 85.1858 32.1774C85.5863 32.6266 85.7865 33.2248 85.7865 33.9718V37.5607C85.7865 37.7413 85.8135 37.8854 85.8668 37.9928C85.9208 38.1002 86.0205 38.1857 86.1675 38.2492C86.2455 38.2834 86.3408 38.3175 86.4533 38.3517C86.5703 38.3859 86.7023 38.4103 86.8485 38.425V38.9596ZM93.219 39.194C92.5403 39.194 91.9395 39.0964 91.4175 38.901C90.9 38.7008 90.4725 38.4298 90.1358 38.0881C89.7983 37.7413 89.547 37.3312 89.3813 36.8575C89.2148 36.3839 89.1323 35.8688 89.1323 35.3122C89.1323 34.8043 89.232 34.321 89.4323 33.862C89.6378 33.403 89.913 33.0001 90.2603 32.6535C90.6165 32.297 91.0583 32.0138 91.5855 31.8039C92.118 31.589 92.7038 31.4816 93.3435 31.4816C94.242 31.4816 94.9523 31.6525 95.475 31.9943C95.997 32.3312 96.2588 32.7877 96.2588 33.3639C96.2588 33.7155 96.1658 33.9987 95.9805 34.2135C95.7945 34.4284 95.475 34.5358 95.0205 34.5358C94.6545 34.5358 94.347 34.4479 94.098 34.2721C93.8535 34.0963 93.732 33.8668 93.732 33.5836C93.732 33.3444 93.771 33.1075 93.849 32.8732C93.927 32.6388 93.9735 32.4606 93.9878 32.3385C93.9345 32.2507 93.8663 32.1847 93.783 32.1408C93.6998 32.092 93.5708 32.0675 93.3945 32.0675C93.1748 32.0675 92.9745 32.1188 92.7945 32.2213C92.6138 32.3239 92.445 32.5045 92.289 32.7633C92.1375 33.0075 92.0153 33.3346 91.9223 33.7447C91.8345 34.1549 91.791 34.6481 91.791 35.2243C91.791 36.0934 91.9935 36.7941 92.3985 37.3263C92.8088 37.8586 93.297 38.1247 93.8633 38.1247C94.4055 38.1247 94.8353 38.005 95.1525 37.7658C95.475 37.5216 95.7608 37.1774 96.0098 36.733L96.5588 37.1139C96.4073 37.4118 96.2265 37.6852 96.0165 37.9342C95.8073 38.1784 95.5553 38.3956 95.2628 38.5861C94.9545 38.7862 94.6425 38.9377 94.3253 39.0402C94.0073 39.1427 93.639 39.194 93.219 39.194ZM106.379 37.2091C106.208 37.4875 106.001 37.7511 105.757 38.0002C105.518 38.2443 105.244 38.4542 104.936 38.63C104.609 38.8156 104.277 38.9548 103.94 39.0475C103.608 39.1452 103.225 39.194 102.791 39.194C102.068 39.194 101.443 39.0914 100.916 38.8864C100.393 38.6813 99.9608 38.4054 99.6188 38.0587C99.2768 37.7121 99.021 37.3043 98.85 36.8356C98.6835 36.3619 98.601 35.8492 98.601 35.2975C98.601 34.7995 98.691 34.3234 98.8718 33.8693C99.057 33.4103 99.3188 33.0026 99.6555 32.6461C99.9878 32.2995 100.405 32.0187 100.908 31.8039C101.416 31.589 101.982 31.4816 102.608 31.4816C103.291 31.4816 103.853 31.5646 104.292 31.7306C104.732 31.8966 105.095 32.1261 105.383 32.4191C105.662 32.6974 105.864 33.027 105.991 33.4078C106.118 33.7838 106.181 34.1794 106.181 34.5944V35.0704H101.231C101.231 36.0715 101.423 36.8332 101.809 37.3556C102.194 37.8781 102.807 38.1393 103.647 38.1393C104.106 38.1393 104.519 38.0148 104.885 37.7658C105.251 37.5118 105.564 37.192 105.823 36.8063L106.379 37.2091ZM103.581 34.4259C103.581 34.1329 103.567 33.8326 103.538 33.5251C103.508 33.2174 103.457 32.9659 103.384 32.7706C103.301 32.5411 103.186 32.3678 103.04 32.2507C102.898 32.1334 102.717 32.0749 102.497 32.0749C102.122 32.0749 101.821 32.2653 101.597 32.6461C101.372 33.027 101.25 33.63 101.231 34.4552L103.581 34.4259Z" fill="#F4F900"/>
<path d="M92.2088 61.9129H83.943V60.9769C84.2415 60.9681 84.624 60.9373 85.0898 60.8845C85.5645 60.8318 85.89 60.7571 86.0655 60.6604C86.3378 60.4935 86.5358 60.3045 86.6588 60.0936C86.7908 59.8738 86.8568 59.6014 86.8568 59.2762V45.6707H86.6588L80.2778 61.6096H79.6185L73.541 45.3411H73.3697V56.5076C73.3697 57.5887 73.4356 58.4104 73.5674 58.9729C73.708 59.5354 73.919 59.9398 74.2002 60.1858C74.3936 60.3704 74.7935 60.5462 75.3998 60.7132C76.0065 60.8802 76.4018 60.9681 76.5863 60.9769V61.9129H69.0323V60.9769C69.4277 60.9417 69.8408 60.8758 70.2715 60.7791C70.711 60.6824 71.0493 60.5374 71.2866 60.344C71.5943 60.0979 71.8052 59.72 71.9195 59.2102C72.0337 58.7005 72.0908 57.8479 72.0908 56.6527V47.0813C72.0908 46.5277 72.0249 46.075 71.8931 45.7234C71.7612 45.3718 71.5723 45.0862 71.3262 44.8665C71.0537 44.6292 70.7198 44.4534 70.3242 44.3392C69.9287 44.2249 69.5376 44.159 69.1509 44.1414V43.2054H75.5318L80.8845 57.2327L85.4588 45.4993C85.626 45.0687 85.7663 44.6204 85.881 44.1546C86.004 43.68 86.07 43.3636 86.0783 43.2054H92.1825V44.1414C91.9365 44.1502 91.62 44.1898 91.2338 44.26C90.8558 44.3304 90.5783 44.3963 90.4028 44.4578C90.1043 44.5633 89.9018 44.7391 89.7968 44.9851C89.691 45.2312 89.6385 45.4993 89.6385 45.7894V59.2762C89.6385 59.5838 89.691 59.8431 89.7968 60.054C89.9018 60.265 90.1043 60.4495 90.4028 60.6077C90.561 60.6956 90.8423 60.7791 91.2465 60.8582C91.6508 60.9285 91.9718 60.9681 92.2088 60.9769V61.9129Z" fill="#1DEB63"/>
<path d="M99.5437 56.197L96.7485 56.3669L96.6607 56.2849V55.5173H96.6255C96.4927 55.6384 96.3615 55.7576 96.2332 55.8747C96.108 55.988 95.9572 56.0915 95.7817 56.1853C95.5822 56.2907 95.3932 56.3689 95.2132 56.4197C95.0377 56.4704 94.7797 56.4959 94.44 56.4959C93.8497 56.4959 93.3967 56.3181 93.0802 55.9626C92.7682 55.6072 92.6115 55.1052 92.6115 54.4568V51.8201C92.6115 51.6677 92.5822 51.5447 92.5237 51.4509C92.4652 51.3533 92.3872 51.2673 92.2897 51.1931C92.2117 51.1345 92.1097 51.0935 91.9845 51.0701C91.86 51.0427 91.7467 51.0251 91.6447 51.0173V50.5896L94.4865 50.4372L94.551 50.5251V54.4216C94.551 54.824 94.6275 55.1208 94.7797 55.3122C94.9357 55.5036 95.1487 55.5993 95.4187 55.5993C95.6955 55.5993 95.9437 55.5271 96.1627 55.3826C96.3855 55.238 96.5475 55.0837 96.6487 54.9197V51.7615C96.6487 51.6287 96.6233 51.5095 96.573 51.404C96.522 51.2986 96.4477 51.2126 96.3502 51.1462C96.2797 51.0993 96.1785 51.0681 96.0457 51.0524C95.9167 51.0368 95.784 51.0251 95.6467 51.0173V50.5896L98.4885 50.4372L98.577 50.5251V55.0486C98.577 55.1853 98.604 55.3025 98.6587 55.4001C98.7135 55.4939 98.7937 55.574 98.8987 55.6403C98.973 55.6872 99.069 55.7204 99.186 55.7399C99.3075 55.7556 99.426 55.7654 99.5437 55.7693V56.197ZM103.931 56.5193C103.552 56.5193 103.181 56.4626 102.817 56.3493C102.458 56.24 102.179 56.1228 101.98 55.9978L101.804 56.3962H101.347L101.271 54.2107H101.699C101.757 54.3865 101.854 54.5857 101.992 54.8084C102.128 55.0271 102.284 55.2243 102.46 55.4001C102.643 55.5759 102.853 55.7243 103.087 55.8455C103.325 55.9665 103.579 56.0271 103.849 56.0271C104.204 56.0271 104.468 55.9587 104.64 55.822C104.815 55.6814 104.903 55.4666 104.903 55.1774C104.903 55.0212 104.864 54.8923 104.786 54.7907C104.708 54.6892 104.601 54.6013 104.464 54.5271C104.311 54.449 104.143 54.3826 103.96 54.3278C103.78 54.2732 103.558 54.2068 103.292 54.1286C103.027 54.0505 102.798 53.9724 102.607 53.8943C102.419 53.8122 102.224 53.6853 102.021 53.5134C101.845 53.3611 101.704 53.1775 101.599 52.9626C101.494 52.7478 101.44 52.4919 101.44 52.1951C101.44 51.6443 101.671 51.199 102.132 50.8591C102.597 50.5193 103.204 50.3493 103.954 50.3493C104.31 50.3493 104.636 50.3864 104.933 50.4607C105.234 50.531 105.486 50.6091 105.688 50.6951L105.811 50.3493H106.257L106.351 52.3474H105.934C105.798 51.9411 105.564 51.5915 105.232 51.2986C104.899 51.0017 104.542 50.8532 104.159 50.8532C103.858 50.8532 103.622 50.9158 103.45 51.0407C103.279 51.1658 103.192 51.3396 103.192 51.5622C103.192 51.8591 103.318 52.0739 103.567 52.2068C103.822 52.3396 104.175 52.4646 104.628 52.5818C105.328 52.7615 105.839 53.0075 106.163 53.3201C106.487 53.6286 106.65 54.0232 106.65 54.5036C106.65 55.1443 106.398 55.6403 105.894 55.9919C105.394 56.3435 104.74 56.5193 103.931 56.5193ZM114.869 54.9197C114.733 55.1423 114.566 55.3532 114.371 55.5524C114.18 55.7478 113.961 55.9157 113.715 56.0564C113.453 56.2048 113.188 56.3162 112.918 56.3903C112.652 56.4685 112.345 56.5076 111.998 56.5076C111.42 56.5076 110.92 56.4255 110.498 56.2615C110.08 56.0974 109.735 55.8767 109.461 55.5993C109.187 55.322 108.983 54.9959 108.846 54.6209C108.713 54.242 108.646 53.8318 108.646 53.3903C108.646 52.9919 108.718 52.6111 108.863 52.2478C109.012 51.8806 109.221 51.5544 109.49 51.2693C109.756 50.9919 110.09 50.7673 110.492 50.5955C110.899 50.4236 111.352 50.3376 111.852 50.3376C112.399 50.3376 112.848 50.4041 113.199 50.5368C113.551 50.6696 113.842 50.8532 114.072 51.0876C114.295 51.3103 114.457 51.574 114.559 51.8786C114.66 52.1795 114.711 52.4958 114.711 52.8278V53.2087H110.75C110.75 54.0095 110.905 54.6189 111.213 55.0368C111.521 55.4548 112.012 55.6638 112.684 55.6638C113.051 55.6638 113.381 55.5642 113.674 55.3649C113.967 55.1618 114.217 54.906 114.424 54.5974L114.869 54.9197ZM112.631 52.6931C112.631 52.4587 112.619 52.2185 112.596 51.9724C112.572 51.7263 112.531 51.5252 112.473 51.3689C112.406 51.1853 112.315 51.0466 112.197 50.9528C112.084 50.8591 111.94 50.8122 111.764 50.8122C111.463 50.8122 111.223 50.9646 111.043 51.2693C110.864 51.574 110.766 52.0564 110.75 52.7165L112.631 52.6931ZM124.284 56.197L121.489 56.3669L121.401 56.2849V55.5173H121.366C121.233 55.6384 121.102 55.7576 120.973 55.8747C120.848 55.988 120.698 56.0915 120.522 56.1853C120.323 56.2907 120.133 56.3689 119.954 56.4197C119.778 56.4704 119.521 56.4959 119.18 56.4959C118.591 56.4959 118.138 56.3181 117.821 55.9626C117.508 55.6072 117.352 55.1052 117.352 54.4568V51.8201C117.352 51.6677 117.323 51.5447 117.265 51.4509C117.206 51.3533 117.127 51.2673 117.03 51.1931C116.952 51.1345 116.851 51.0935 116.725 51.0701C116.6 51.0427 116.487 51.0251 116.386 51.0173V50.5896L119.227 50.4372L119.292 50.5251V54.4216C119.292 54.824 119.368 55.1208 119.521 55.3122C119.677 55.5036 119.89 55.5993 120.159 55.5993C120.437 55.5993 120.685 55.5271 120.903 55.3826C121.126 55.238 121.288 55.0837 121.39 54.9197V51.7615C121.39 51.6287 121.364 51.5095 121.313 51.404C121.262 51.2986 121.189 51.2126 121.09 51.1462C121.021 51.0993 120.919 51.0681 120.786 51.0524C120.657 51.0368 120.524 51.0251 120.388 51.0173V50.5896L123.229 50.4372L123.317 50.5251V55.0486C123.317 55.1853 123.345 55.3025 123.399 55.4001C123.454 55.4939 123.534 55.574 123.64 55.6403C123.714 55.6872 123.809 55.7204 123.927 55.7399C124.048 55.7556 124.167 55.7654 124.284 55.7693V56.197ZM137.601 56.3201H134.109V55.8923C134.195 55.8806 134.285 55.8708 134.378 55.863C134.472 55.8552 134.551 55.8357 134.613 55.8044C134.699 55.7654 134.753 55.7009 134.777 55.6111C134.8 55.5173 134.812 55.3982 134.812 55.2536V52.5173C134.812 52.115 134.74 51.8142 134.596 51.6149C134.455 51.4118 134.251 51.3103 133.986 51.3103C133.818 51.3103 133.668 51.3377 133.535 51.3923C133.406 51.4431 133.287 51.5075 133.178 51.5857C133.064 51.6677 132.976 51.7497 132.913 51.8318C132.851 51.9138 132.799 51.9841 132.755 52.0427V55.1892C132.755 55.3298 132.771 55.445 132.803 55.5349C132.838 55.6208 132.9 55.6892 132.99 55.7399C133.052 55.7751 133.123 55.8064 133.201 55.8337C133.283 55.8611 133.369 55.8806 133.459 55.8923V56.3201H130.113V55.8923C130.187 55.8845 130.277 55.8747 130.382 55.863C130.488 55.8513 130.566 55.8317 130.617 55.8044C130.699 55.7615 130.752 55.699 130.775 55.6169C130.802 55.5349 130.816 55.4138 130.816 55.2536V52.5173C130.816 52.115 130.744 51.8142 130.599 51.6149C130.459 51.4118 130.256 51.3103 129.99 51.3103C129.822 51.3103 129.671 51.3377 129.538 51.3923C129.41 51.4431 129.291 51.5075 129.181 51.5857C129.068 51.6677 128.98 51.7497 128.917 51.8318C128.855 51.9138 128.803 51.9841 128.759 52.0427V55.1892C128.759 55.3259 128.777 55.4392 128.812 55.529C128.847 55.6189 128.91 55.6892 129 55.7399C129.062 55.7751 129.133 55.8064 129.211 55.8337C129.293 55.8611 129.379 55.8806 129.469 55.8923V56.3201H125.959V55.8923C126.06 55.8845 126.16 55.8747 126.257 55.863C126.355 55.8513 126.439 55.8317 126.509 55.8044C126.634 55.7576 126.721 55.6911 126.767 55.6052C126.814 55.5154 126.838 55.3982 126.838 55.2536V51.8435C126.838 51.7185 126.805 51.5974 126.738 51.4802C126.671 51.3591 126.592 51.2654 126.498 51.199C126.427 51.1521 126.337 51.113 126.228 51.0818C126.123 51.0505 126.005 51.029 125.877 51.0173V50.5896L128.671 50.4372L128.759 50.5251V51.3513H128.783C128.892 51.2537 129.021 51.1384 129.169 51.0056C129.322 50.8689 129.464 50.7595 129.597 50.6774C129.742 50.5837 129.928 50.5056 130.154 50.4431C130.381 50.3806 130.628 50.3493 130.898 50.3493C131.344 50.3493 131.714 50.447 132.011 50.6423C132.312 50.8337 132.525 51.0896 132.65 51.4099H132.703C132.816 51.3044 132.955 51.1814 133.119 51.0407C133.283 50.8962 133.433 50.781 133.57 50.6951C133.722 50.5974 133.916 50.5154 134.15 50.449C134.389 50.3825 134.642 50.3493 134.911 50.3493C135.502 50.3493 135.955 50.5232 136.271 50.8709C136.592 51.2185 136.752 51.7127 136.752 52.3532V55.2009C136.752 55.3454 136.773 55.4627 136.816 55.5524C136.859 55.6384 136.937 55.7048 137.05 55.7517C137.113 55.779 137.189 55.8064 137.279 55.8337C137.373 55.8611 137.48 55.8806 137.601 55.8923V56.3201Z" fill="#1DEB63"/>
</g>
</g>
<defs>
<filter id="filter0_d_335_7486" x="0.21832" y="5.63379" width="140.443" height="62.3991" filterUnits="userSpaceOnUse" color-interpolation-filters="sRGB">
<feFlood flood-opacity="0" result="BackgroundImageFix"/>
<feColorMatrix in="SourceAlpha" type="matrix" values="0 0 0 0 0 0 0 0 0 0 0 0 0 0 0 0 0 0 127 0" result="hardAlpha"/>
<feOffset dy="3.06"/>
<feGaussianBlur stdDeviation="1.53"/>
<feComposite in2="hardAlpha" operator="out"/>
<feColorMatrix type="matrix" values="0 0 0 0 0 0 0 0 0 0 0 0 0 0 0 0 0 0 0.25 0"/>
<feBlend mode="normal" in2="BackgroundImageFix" result="effect1_dropShadow_335_7486"/>
<feBlend mode="normal" in="SourceGraphic" in2="effect1_dropShadow_335_7486" result="shape"/>
</filter>
<clipPath id="clip0_335_7486">
<rect width="141" height="68.25" fill="white"/>
</clipPath>
</defs>
</svg>
