<svg xmlns="http://www.w3.org/2000/svg" width="188" height="91" fill="none" viewBox="0 0 188 91"><g filter="url(#filter0_d_221_893)"><path fill="#FF8652" d="M15.709 33.5801C14.2207 33.5801 12.791 33.2871 11.4199 32.7012C10.0605 32.1152 8.85352 31.2715 7.79883 30.1699C6.75586 29.0684 5.92383 27.7266 5.30273 26.1445C4.68164 24.5508 4.37109 22.7578 4.37109 20.7656C4.37109 18.7734 4.67578 16.9687 5.28516 15.3516C5.89453 13.7227 6.73828 12.3223 7.81641 11.1504C8.88281 9.99023 10.1426 9.09375 11.5957 8.46093C13.0488 7.82812 14.6016 7.51172 16.2539 7.51172C17.4844 7.51172 18.5977 7.66406 19.5938 7.96875C20.5898 8.27343 21.5391 8.70117 22.4414 9.25195L23.1621 8.05664H24.5684L24.7266 16.9512H23.2852C23.0977 16.084 22.8164 15.1465 22.4414 14.1387C22.0664 13.1191 21.627 12.2578 21.123 11.5547C20.5605 10.7578 19.8926 10.1367 19.1191 9.6914C18.3457 9.23437 17.4609 9.00586 16.4648 9.00586C15.3281 9.00586 14.2676 9.25781 13.2832 9.76172C12.3105 10.2656 11.4668 11.0098 10.752 11.9941C10.0723 12.9434 9.53906 14.1504 9.15234 15.6152C8.76563 17.0801 8.57227 18.7148 8.57227 20.5195C8.57227 22.1133 8.77148 23.5781 9.16992 24.9141C9.58008 26.2383 10.1602 27.4043 10.9102 28.4121C11.6602 29.4082 12.5449 30.1875 13.5645 30.75C14.5957 31.3125 15.7441 31.5937 17.0098 31.5937C17.959 31.5937 18.832 31.4473 19.6289 31.1543C20.4258 30.8496 21.1172 30.4512 21.7031 29.959C22.2891 29.4434 22.8047 28.8574 23.25 28.2012C23.6953 27.5449 24.0586 26.8301 24.3398 26.0566L25.6582 26.6895C24.6504 29.1621 23.3145 30.9316 21.6504 31.998C19.9863 33.0527 18.0059 33.5801 15.709 33.5801Z"/><path fill="#FF8652" d="M35.624 20.0033C36.0094 20.3627 36.3037 20.7924 36.5068 21.2924C36.71 21.7924 36.8115 22.334 36.8115 22.9174C36.8115 23.4955 36.71 24.0424 36.5068 24.558C36.3089 25.0684 36.0173 25.5059 35.6318 25.8705C35.2204 26.2611 34.7282 26.5606 34.1553 26.7689C33.5876 26.9773 32.9365 27.0814 32.2021 27.0814C31.5667 27.0814 30.9808 26.9903 30.4443 26.808C29.9131 26.6257 29.4417 26.3523 29.0303 25.9877C28.6344 25.6387 28.3219 25.209 28.0928 24.6986C27.8636 24.183 27.749 23.6075 27.749 22.972C27.749 22.347 27.848 21.7924 28.0459 21.308C28.249 20.8184 28.5511 20.3835 28.9521 20.0033C29.3376 19.6387 29.8115 19.3575 30.374 19.1595C30.9417 18.9564 31.5745 18.8549 32.2725 18.8549C33.0016 18.8549 33.6423 18.9564 34.1943 19.1595C34.7516 19.3575 35.2282 19.6387 35.624 20.0033ZM33.624 25.4174C33.7386 25.1257 33.8219 24.7715 33.874 24.3549C33.9313 23.9382 33.96 23.4538 33.96 22.9017C33.96 22.5372 33.9339 22.1205 33.8818 21.6517C33.8298 21.183 33.7516 20.8132 33.6475 20.5424C33.5225 20.2142 33.348 19.9564 33.124 19.7689C32.9053 19.5814 32.6266 19.4877 32.2881 19.4877C31.9183 19.4877 31.6214 19.5892 31.3975 19.7924C31.1787 19.9955 31.0094 20.2585 30.8896 20.5814C30.7803 20.8783 30.7048 21.2273 30.6631 21.6283C30.6214 22.0241 30.6006 22.4382 30.6006 22.8705C30.6006 23.4382 30.6188 23.9095 30.6553 24.2845C30.6917 24.6543 30.7803 25.0267 30.9209 25.4017C31.0407 25.7247 31.2126 25.9799 31.4365 26.1674C31.6605 26.3549 31.9443 26.4486 32.2881 26.4486C32.6006 26.4486 32.8688 26.3627 33.0928 26.1908C33.3167 26.0137 33.4938 25.7559 33.624 25.4174ZM54.9428 26.8314H50.2865V26.2611C50.4011 26.2455 50.5209 26.2325 50.6459 26.222C50.7709 26.2116 50.8751 26.1856 50.9584 26.1439C51.073 26.0918 51.1459 26.0059 51.1771 25.8861C51.2084 25.7611 51.224 25.6023 51.224 25.4095V21.7611C51.224 21.2247 51.1277 20.8236 50.935 20.558C50.7475 20.2872 50.4766 20.1517 50.1225 20.1517C49.8985 20.1517 49.698 20.1882 49.5209 20.2611C49.349 20.3288 49.1902 20.4148 49.0443 20.5189C48.8933 20.6283 48.7761 20.7377 48.6928 20.847C48.6094 20.9564 48.5391 21.0502 48.4818 21.1283V25.3236C48.4818 25.5111 48.5027 25.6648 48.5443 25.7845C48.5912 25.8991 48.6745 25.9903 48.7943 26.058C48.8777 26.1049 48.9714 26.1465 49.0756 26.183C49.185 26.2194 49.2995 26.2455 49.4193 26.2611V26.8314H44.9584V26.2611C45.0574 26.2507 45.1771 26.2377 45.3178 26.222C45.4584 26.2064 45.5626 26.1804 45.6303 26.1439C45.7396 26.0866 45.81 26.0033 45.8412 25.8939C45.8777 25.7845 45.8959 25.6231 45.8959 25.4095V21.7611C45.8959 21.2247 45.7995 20.8236 45.6068 20.558C45.4193 20.2872 45.1485 20.1517 44.7943 20.1517C44.5704 20.1517 44.3699 20.1882 44.1928 20.2611C44.0209 20.3288 43.862 20.4148 43.7162 20.5189C43.5652 20.6283 43.448 20.7377 43.3646 20.847C43.2813 20.9564 43.211 21.0502 43.1537 21.1283V25.3236C43.1537 25.5059 43.1771 25.6569 43.224 25.7767C43.2709 25.8965 43.3542 25.9903 43.474 26.058C43.5574 26.1049 43.6511 26.1465 43.7553 26.183C43.8646 26.2194 43.9792 26.2455 44.099 26.2611V26.8314H39.4193V26.2611C39.5548 26.2507 39.6876 26.2377 39.8178 26.222C39.948 26.2064 40.06 26.1804 40.1537 26.1439C40.3204 26.0814 40.435 25.9929 40.4975 25.8783C40.56 25.7585 40.5912 25.6023 40.5912 25.4095V20.8627C40.5912 20.696 40.5469 20.5345 40.4584 20.3783C40.3699 20.2168 40.2631 20.0918 40.1381 20.0033C40.0443 19.9408 39.9245 19.8887 39.7787 19.847C39.6381 19.8054 39.4818 19.7767 39.31 19.7611V19.1908L43.0365 18.9877L43.1537 19.1049V20.2064H43.185C43.3308 20.0762 43.5027 19.9226 43.7006 19.7455C43.9037 19.5632 44.0938 19.4174 44.2709 19.308C44.4636 19.183 44.711 19.0788 45.0131 18.9955C45.3152 18.9122 45.6459 18.8705 46.0053 18.8705C46.599 18.8705 47.0938 19.0007 47.4896 19.2611C47.8907 19.5163 48.1745 19.8575 48.3412 20.2845H48.4115C48.5626 20.1439 48.7475 19.9799 48.9662 19.7924C49.185 19.5997 49.3855 19.446 49.5678 19.3314C49.7709 19.2012 50.0287 19.0918 50.3412 19.0033C50.6589 18.9148 50.9975 18.8705 51.3568 18.8705C52.1433 18.8705 52.7475 19.1023 53.1693 19.5658C53.5964 20.0293 53.81 20.6882 53.81 21.5424V25.3392C53.81 25.5319 53.8386 25.6882 53.8959 25.808C53.9532 25.9226 54.0574 26.0111 54.2084 26.0736C54.2917 26.1101 54.3933 26.1465 54.5131 26.183C54.6381 26.2194 54.7813 26.2455 54.9428 26.2611V26.8314ZM72.7928 26.8314H68.1365V26.2611C68.2511 26.2455 68.3709 26.2325 68.4959 26.222C68.6209 26.2116 68.7251 26.1856 68.8084 26.1439C68.923 26.0918 68.9959 26.0059 69.0271 25.8861C69.0584 25.7611 69.074 25.6023 69.074 25.4095V21.7611C69.074 21.2247 68.9777 20.8236 68.785 20.558C68.5975 20.2872 68.3266 20.1517 67.9725 20.1517C67.7485 20.1517 67.548 20.1882 67.3709 20.2611C67.199 20.3288 67.0402 20.4148 66.8943 20.5189C66.7433 20.6283 66.6261 20.7377 66.5428 20.847C66.4594 20.9564 66.3891 21.0502 66.3318 21.1283V25.3236C66.3318 25.5111 66.3527 25.6648 66.3943 25.7845C66.4412 25.8991 66.5245 25.9903 66.6443 26.058C66.7277 26.1049 66.8214 26.1465 66.9256 26.183C67.035 26.2194 67.1495 26.2455 67.2693 26.2611V26.8314H62.8084V26.2611C62.9074 26.2507 63.0271 26.2377 63.1678 26.222C63.3084 26.2064 63.4126 26.1804 63.4803 26.1439C63.5896 26.0866 63.66 26.0033 63.6912 25.8939C63.7277 25.7845 63.7459 25.6231 63.7459 25.4095V21.7611C63.7459 21.2247 63.6495 20.8236 63.4568 20.558C63.2693 20.2872 62.9985 20.1517 62.6443 20.1517C62.4204 20.1517 62.2199 20.1882 62.0428 20.2611C61.8709 20.3288 61.712 20.4148 61.5662 20.5189C61.4152 20.6283 61.298 20.7377 61.2146 20.847C61.1313 20.9564 61.061 21.0502 61.0037 21.1283V25.3236C61.0037 25.5059 61.0271 25.6569 61.074 25.7767C61.1209 25.8965 61.2042 25.9903 61.324 26.058C61.4074 26.1049 61.5011 26.1465 61.6053 26.183C61.7146 26.2194 61.8292 26.2455 61.949 26.2611V26.8314H57.2693V26.2611C57.4048 26.2507 57.5376 26.2377 57.6678 26.222C57.798 26.2064 57.91 26.1804 58.0037 26.1439C58.1704 26.0814 58.285 25.9929 58.3475 25.8783C58.41 25.7585 58.4412 25.6023 58.4412 25.4095V20.8627C58.4412 20.696 58.3969 20.5345 58.3084 20.3783C58.2199 20.2168 58.1131 20.0918 57.9881 20.0033C57.8943 19.9408 57.7745 19.8887 57.6287 19.847C57.4881 19.8054 57.3318 19.7767 57.16 19.7611V19.1908L60.8865 18.9877L61.0037 19.1049V20.2064H61.035C61.1808 20.0762 61.3527 19.9226 61.5506 19.7455C61.7537 19.5632 61.9438 19.4174 62.1209 19.308C62.3136 19.183 62.561 19.0788 62.8631 18.9955C63.1652 18.9122 63.4959 18.8705 63.8553 18.8705C64.449 18.8705 64.9438 19.0007 65.3396 19.2611C65.7407 19.5163 66.0245 19.8575 66.1912 20.2845H66.2615C66.4126 20.1439 66.5975 19.9799 66.8162 19.7924C67.035 19.5997 67.2355 19.446 67.4178 19.3314C67.6209 19.2012 67.8787 19.0918 68.1912 19.0033C68.5089 18.9148 68.8475 18.8705 69.2068 18.8705C69.9933 18.8705 70.5975 19.1023 71.0193 19.5658C71.4464 20.0293 71.66 20.6882 71.66 21.5424V25.3392C71.66 25.5319 71.6886 25.6882 71.7459 25.808C71.8032 25.9226 71.9074 26.0111 72.0584 26.0736C72.1417 26.1101 72.2433 26.1465 72.3631 26.183C72.4881 26.2194 72.6313 26.2455 72.7928 26.2611V26.8314ZM85.3146 26.6674L81.5881 26.8939L81.4709 26.7845V25.7611H81.424C81.2469 25.9226 81.0725 26.0814 80.9006 26.2377C80.7339 26.3887 80.5334 26.5267 80.299 26.6517C80.0334 26.7924 79.7808 26.8965 79.5412 26.9642C79.3068 27.0319 78.9631 27.0658 78.51 27.0658C77.7235 27.0658 77.1193 26.8288 76.6975 26.3549C76.2808 25.8809 76.0725 25.2116 76.0725 24.347V20.8314C76.0725 20.6283 76.0334 20.4642 75.9553 20.3392C75.8771 20.209 75.773 20.0944 75.6428 19.9955C75.5386 19.9174 75.4032 19.8627 75.2365 19.8314C75.0699 19.795 74.9188 19.7715 74.7834 19.7611V19.1908L78.5725 18.9877L78.6584 19.1049V24.3002C78.6584 24.8366 78.76 25.2325 78.9631 25.4877C79.1714 25.7429 79.4553 25.8705 79.8146 25.8705C80.1844 25.8705 80.5152 25.7741 80.8068 25.5814C81.1037 25.3887 81.3199 25.183 81.4553 24.9642V20.7533C81.4553 20.5762 81.4214 20.4174 81.3537 20.2767C81.286 20.1361 81.187 20.0215 81.0568 19.933C80.9631 19.8705 80.8277 19.8288 80.6506 19.808C80.4787 19.7872 80.3016 19.7715 80.1193 19.7611V19.1908L83.9084 18.9877L84.0256 19.1049V25.1361C84.0256 25.3184 84.062 25.4747 84.135 25.6049C84.2079 25.7299 84.3146 25.8366 84.4553 25.9252C84.5542 25.9877 84.6818 26.0319 84.8381 26.058C84.9995 26.0788 85.1584 26.0918 85.3146 26.097V26.6674ZM97.86 26.8314H93.1568V26.2611C93.2558 26.2507 93.3756 26.2377 93.5162 26.222C93.6568 26.2064 93.7636 26.1804 93.8365 26.1439C93.9459 26.0866 94.024 26.0033 94.0709 25.8939C94.1178 25.7845 94.1412 25.6231 94.1412 25.4095V21.7533C94.1412 21.222 94.0423 20.8236 93.8443 20.558C93.6516 20.2872 93.3652 20.1517 92.985 20.1517C92.7766 20.1517 92.5813 20.183 92.399 20.2455C92.2219 20.308 92.0475 20.3991 91.8756 20.5189C91.7245 20.6231 91.6021 20.7299 91.5084 20.8392C91.4199 20.9486 91.3443 21.045 91.2818 21.1283V25.3236C91.2818 25.5059 91.3079 25.6595 91.36 25.7845C91.412 25.9043 91.498 25.9955 91.6178 26.058C91.7011 26.1049 91.8053 26.1465 91.9303 26.183C92.0553 26.2194 92.1777 26.2455 92.2975 26.2611V26.8314H87.5475V26.2611C87.6777 26.2507 87.8079 26.2377 87.9381 26.222C88.0735 26.2012 88.1881 26.1752 88.2818 26.1439C88.4485 26.0866 88.5631 25.9981 88.6256 25.8783C88.6881 25.7585 88.7193 25.6023 88.7193 25.4095V20.8627C88.7193 20.7012 88.6777 20.5424 88.5943 20.3861C88.511 20.2299 88.4016 20.1023 88.2662 20.0033C88.1725 19.9408 88.0527 19.8887 87.9068 19.847C87.7662 19.8054 87.61 19.7767 87.4381 19.7611V19.1908L91.1646 18.9877L91.2818 19.1049V20.2377H91.3131C91.4589 20.1075 91.636 19.9512 91.8443 19.7689C92.0527 19.5866 92.2454 19.4382 92.4225 19.3236C92.6152 19.1986 92.8678 19.0918 93.1803 19.0033C93.4928 18.9148 93.8261 18.8705 94.1803 18.8705C95.0292 18.8705 95.6646 19.1127 96.0865 19.597C96.5136 20.0762 96.7271 20.7142 96.7271 21.5111V25.3392C96.7271 25.5319 96.7558 25.6856 96.8131 25.8002C96.8704 25.9148 96.9771 26.0059 97.1334 26.0736C97.2167 26.1101 97.3183 26.1465 97.4381 26.183C97.5631 26.2194 97.7037 26.2455 97.86 26.2611V26.8314ZM105.132 26.8314H100.194V26.2611C100.33 26.2507 100.463 26.2377 100.593 26.222C100.723 26.2064 100.835 26.1804 100.929 26.1439C101.095 26.0814 101.213 25.9929 101.28 25.8783C101.348 25.7585 101.382 25.6023 101.382 25.4095V20.8627C101.382 20.6804 101.34 20.5215 101.257 20.3861C101.174 20.2455 101.069 20.1335 100.944 20.0502C100.851 19.9877 100.707 19.9278 100.515 19.8705C100.327 19.8132 100.155 19.7767 99.999 19.7611V19.1908L103.827 18.9877L103.944 19.1049V25.308C103.944 25.4903 103.983 25.6465 104.062 25.7767C104.14 25.9017 104.252 25.9955 104.397 26.058C104.502 26.1049 104.616 26.1465 104.741 26.183C104.866 26.2194 104.996 26.2455 105.132 26.2611V26.8314ZM103.991 16.1752C103.991 16.571 103.838 16.9095 103.53 17.1908C103.228 17.4668 102.869 17.6049 102.452 17.6049C102.03 17.6049 101.666 17.4668 101.358 17.1908C101.056 16.9095 100.905 16.571 100.905 16.1752C100.905 15.7793 101.056 15.4408 101.358 15.1595C101.666 14.8783 102.03 14.7377 102.452 14.7377C102.874 14.7377 103.236 14.8783 103.538 15.1595C103.84 15.4408 103.991 15.7793 103.991 16.1752ZM113.263 26.472C112.93 26.6179 112.573 26.7481 112.193 26.8627C111.813 26.9825 111.349 27.0424 110.802 27.0424C109.99 27.0424 109.385 26.8444 108.99 26.4486C108.599 26.0528 108.404 25.4877 108.404 24.7533V19.9564H106.997V19.1127H108.435V16.7455H110.974V19.1127H113.162V19.9564H110.99V24.2377C110.99 24.847 111.073 25.2793 111.24 25.5345C111.412 25.7898 111.716 25.9174 112.154 25.9174C112.294 25.9174 112.49 25.9069 112.74 25.8861C112.99 25.8653 113.164 25.8418 113.263 25.8158V26.472ZM124.238 19.6517C124.004 19.6882 123.775 19.7767 123.551 19.9174C123.332 20.058 123.15 20.2767 123.004 20.5736C122.556 21.5215 122.095 22.5319 121.621 23.6049C121.147 24.6726 120.621 25.8288 120.043 27.0736C119.72 27.7715 119.407 28.3288 119.105 28.7455C118.803 29.1622 118.519 29.4825 118.254 29.7064C118.004 29.9148 117.756 30.0658 117.512 30.1595C117.267 30.2533 117.019 30.3002 116.769 30.3002C116.275 30.3002 115.873 30.1622 115.566 29.8861C115.264 29.6101 115.113 29.3002 115.113 28.9564C115.113 28.8106 115.129 28.6752 115.16 28.5502C115.196 28.4252 115.269 28.295 115.379 28.1595C115.462 28.045 115.59 27.946 115.762 27.8627C115.939 27.7845 116.137 27.7455 116.355 27.7455C116.647 27.7455 116.926 27.847 117.191 28.0502C117.457 28.2533 117.733 28.5345 118.019 28.8939C118.191 28.722 118.402 28.4642 118.652 28.1205C118.907 27.7819 119.095 27.433 119.215 27.0736C118.595 25.7715 118.045 24.6439 117.566 23.6908C117.087 22.7325 116.551 21.6648 115.957 20.4877C115.827 20.2377 115.652 20.045 115.433 19.9095C115.215 19.7689 114.983 19.683 114.738 19.6517V19.0814H119.519V19.6517C119.342 19.6569 119.137 19.696 118.902 19.7689C118.673 19.8418 118.558 19.9356 118.558 20.0502C118.558 20.0918 118.566 20.1387 118.582 20.1908C118.597 20.2377 118.626 20.308 118.668 20.4017C118.845 20.7663 119.095 21.2741 119.418 21.9252C119.746 22.571 120.126 23.3288 120.558 24.1986C120.881 23.459 121.155 22.8236 121.379 22.2924C121.608 21.7559 121.829 21.2299 122.043 20.7142C122.095 20.584 122.123 20.4825 122.129 20.4095C122.139 20.3314 122.144 20.2793 122.144 20.2533C122.144 20.1595 122.097 20.0788 122.004 20.0111C121.915 19.9382 121.808 19.8757 121.683 19.8236C121.553 19.7715 121.428 19.7325 121.308 19.7064C121.189 19.6804 121.09 19.6622 121.012 19.6517V19.0814H124.238V19.6517Z"/><path fill="#F4F900" d="M64.0439 45.8263C64.5713 46.4122 64.958 47.0568 65.2041 47.7599C65.4619 48.4513 65.5908 49.2599 65.5908 50.1857C65.5908 52.3888 64.7764 54.2052 63.1475 55.6349C61.5186 57.0646 59.4971 57.7794 57.083 57.7794C55.9697 57.7794 54.8564 57.6095 53.7432 57.2697C52.6299 56.9181 51.6689 56.4962 50.8604 56.004L50.1045 57.2872H48.6982L48.4521 48.7443H49.876C50.1689 49.7989 50.5088 50.754 50.8955 51.6095C51.2939 52.4532 51.8154 53.2443 52.46 53.9825C53.0693 54.6739 53.7783 55.2247 54.5869 55.6349C55.4072 56.045 56.3564 56.2501 57.4346 56.2501C58.2432 56.2501 58.9463 56.1447 59.5439 55.9337C60.1533 55.7228 60.6455 55.4239 61.0205 55.0372C61.3955 54.6505 61.6709 54.1993 61.8467 53.6837C62.0342 53.1564 62.1279 52.5529 62.1279 51.8732C62.1279 50.8771 61.8467 49.9513 61.2842 49.0958C60.7217 48.2286 59.8838 47.5724 58.7705 47.1271C58.0088 46.8224 57.1357 46.4884 56.1514 46.1251C55.167 45.7501 54.3174 45.3986 53.6025 45.0704C52.1963 44.4376 51.1006 43.6114 50.3154 42.5919C49.542 41.5607 49.1553 40.2189 49.1553 38.5665C49.1553 37.6173 49.3486 36.7325 49.7354 35.9122C50.1221 35.0919 50.6729 34.3595 51.3877 33.715C52.0674 33.1056 52.8701 32.631 53.7959 32.2911C54.7217 31.9396 55.6885 31.7638 56.6963 31.7638C57.8447 31.7638 58.8701 31.9396 59.7725 32.2911C60.6865 32.6427 61.5186 33.0529 62.2686 33.5216L62.9893 32.3263H64.3955L64.5361 40.6056H63.1123C62.8545 39.6564 62.5615 38.7482 62.2334 37.881C61.917 37.0138 61.501 36.2286 60.9854 35.5255C60.4814 34.8458 59.8662 34.3068 59.1396 33.9083C58.4131 33.4982 57.5225 33.2931 56.4678 33.2931C55.3545 33.2931 54.4053 33.6505 53.6201 34.3654C52.835 35.0802 52.4424 35.9532 52.4424 36.9845C52.4424 38.0626 52.6943 38.9591 53.1982 39.6739C53.7021 40.3771 54.4346 40.9572 55.3955 41.4142C56.251 41.8243 57.0889 42.1818 57.9092 42.4864C58.7412 42.7794 59.5439 43.0958 60.3174 43.4357C61.0205 43.7404 61.6943 44.0861 62.3389 44.4728C62.9951 44.8595 63.5635 45.3107 64.0439 45.8263Z"/><path fill="#F4F900" d="M73.3428 52.2587C72.4378 52.2587 71.637 52.1285 70.9404 51.868C70.2503 51.6011 69.6807 51.2398 69.2314 50.7841C68.7822 50.3218 68.4469 49.7749 68.2256 49.1434C68.0042 48.5119 67.8936 47.8251 67.8936 47.0829C67.8936 46.4058 68.027 45.7613 68.2939 45.1493C68.5674 44.5373 68.9352 44.0002 69.3975 43.538C69.8727 43.0627 70.4619 42.6851 71.165 42.4052C71.8747 42.1187 72.6559 41.9755 73.5088 41.9755C74.7067 41.9755 75.654 42.2033 76.3506 42.6591C77.0472 43.1083 77.3955 43.717 77.3955 44.4852C77.3955 44.954 77.2718 45.3316 77.0244 45.618C76.777 45.9045 76.3506 46.0477 75.7451 46.0477C75.2568 46.0477 74.8467 45.9305 74.5146 45.6962C74.1891 45.4618 74.0264 45.1558 74.0264 44.7782C74.0264 44.4592 74.0785 44.1434 74.1826 43.8309C74.2868 43.5184 74.3486 43.2808 74.3682 43.118C74.2965 43.0009 74.2054 42.913 74.0947 42.8544C73.984 42.7893 73.8115 42.7567 73.5771 42.7567C73.2842 42.7567 73.0173 42.8251 72.7764 42.9618C72.5355 43.0985 72.3109 43.3394 72.1025 43.6844C71.9007 44.01 71.738 44.4462 71.6143 44.993C71.4971 45.5399 71.4385 46.1975 71.4385 46.9657C71.4385 48.1246 71.7087 49.0588 72.249 49.7684C72.7959 50.4781 73.4469 50.8329 74.2021 50.8329C74.9248 50.8329 75.4977 50.6734 75.9209 50.3544C76.3506 50.0288 76.7314 49.5699 77.0635 48.9774L77.7959 49.4852C77.5941 49.8824 77.3532 50.2469 77.0732 50.579C76.7933 50.9045 76.458 51.1942 76.0674 51.4481C75.6572 51.715 75.2406 51.9169 74.8174 52.0536C74.3942 52.1903 73.9027 52.2587 73.3428 52.2587ZM86.5635 51.9462H80.3916V51.2333C80.5609 51.2203 80.7269 51.204 80.8896 51.1844C81.0524 51.1649 81.1924 51.1324 81.3096 51.0868C81.5179 51.0087 81.6644 50.898 81.749 50.7548C81.8337 50.605 81.876 50.4097 81.876 50.1688V44.4852C81.876 44.2574 81.8239 44.0588 81.7197 43.8895C81.6156 43.7137 81.4854 43.5738 81.3291 43.4696C81.2119 43.3915 81.0329 43.3166 80.792 43.245C80.5576 43.1734 80.3428 43.1278 80.1475 43.1083V42.3954L84.9326 42.1415L85.0791 42.288V50.0419C85.0791 50.2697 85.1279 50.465 85.2256 50.6278C85.3232 50.7841 85.4632 50.9012 85.6455 50.9794C85.7757 51.038 85.9189 51.09 86.0752 51.1356C86.2314 51.1812 86.3942 51.2137 86.5635 51.2333V51.9462ZM85.1377 38.6259C85.1377 39.1206 84.9456 39.5438 84.5615 39.8954C84.1839 40.2404 83.7347 40.413 83.2139 40.413C82.6865 40.413 82.2308 40.2404 81.8467 39.8954C81.4691 39.5438 81.2803 39.1206 81.2803 38.6259C81.2803 38.1311 81.4691 37.7079 81.8467 37.3563C82.2308 37.0048 82.6865 36.829 83.2139 36.829C83.7412 36.829 84.1937 37.0048 84.5713 37.3563C84.9489 37.7079 85.1377 38.1311 85.1377 38.6259ZM99.96 49.6122C99.7321 49.9833 99.4554 50.3348 99.1299 50.6669C98.8109 50.9924 98.4463 51.2723 98.0361 51.5067C97.5999 51.7541 97.1572 51.9397 96.708 52.0634C96.2653 52.1936 95.7542 52.2587 95.1748 52.2587C94.2113 52.2587 93.3779 52.1219 92.6748 51.8485C91.9782 51.5751 91.402 51.2072 90.9463 50.745C90.4906 50.2828 90.1488 49.7391 89.9209 49.1141C89.6995 48.4826 89.5889 47.799 89.5889 47.0634C89.5889 46.3993 89.7093 45.7645 89.9502 45.1591C90.1976 44.5471 90.5459 44.0035 90.9951 43.5282C91.4378 43.066 91.9945 42.6916 92.665 42.4052C93.3421 42.1187 94.0973 41.9755 94.9307 41.9755C95.8421 41.9755 96.5908 42.0861 97.1768 42.3075C97.7627 42.5288 98.2477 42.8348 98.6318 43.2255C99.0029 43.5966 99.2731 44.036 99.4424 44.5438C99.6117 45.0451 99.6963 45.5725 99.6963 46.1259V46.7606H93.0947C93.0947 48.0953 93.3519 49.1109 93.8662 49.8075C94.3805 50.5041 95.1976 50.8524 96.3174 50.8524C96.9294 50.8524 97.4795 50.6864 97.9678 50.3544C98.4561 50.0158 98.8727 49.5894 99.2178 49.0751L99.96 49.6122ZM96.2295 45.9012C96.2295 45.5106 96.21 45.1102 96.1709 44.7001C96.1318 44.2899 96.0635 43.9546 95.9658 43.6942C95.8551 43.3882 95.7021 43.1571 95.5068 43.0009C95.318 42.8446 95.0771 42.7665 94.7842 42.7665C94.2829 42.7665 93.8825 43.0204 93.583 43.5282C93.2835 44.036 93.1208 44.84 93.0947 45.9403L96.2295 45.9012ZM115.798 51.9462H109.919V51.2333C110.043 51.2203 110.192 51.204 110.368 51.1844C110.544 51.1649 110.677 51.1324 110.769 51.0868C110.905 51.0152 111.003 50.911 111.062 50.7743C111.12 50.6376 111.149 50.4358 111.149 50.1688V45.5985C111.149 44.9344 111.026 44.4364 110.778 44.1044C110.537 43.7658 110.179 43.5966 109.704 43.5966C109.444 43.5966 109.2 43.6356 108.972 43.7137C108.75 43.7919 108.532 43.9058 108.317 44.0555C108.129 44.1858 107.976 44.3192 107.858 44.4559C107.748 44.5927 107.653 44.7131 107.575 44.8173V50.0614C107.575 50.2893 107.608 50.4813 107.673 50.6376C107.738 50.7873 107.845 50.9012 107.995 50.9794C108.099 51.038 108.229 51.09 108.386 51.1356C108.542 51.1812 108.695 51.2137 108.845 51.2333V51.9462H102.907V51.2333C103.07 51.2203 103.233 51.204 103.396 51.1844C103.565 51.1584 103.708 51.1259 103.825 51.0868C104.034 51.0152 104.177 50.9045 104.255 50.7548C104.333 50.605 104.372 50.4097 104.372 50.1688V44.4852C104.372 44.2834 104.32 44.0848 104.216 43.8895C104.112 43.6942 103.975 43.5347 103.806 43.411C103.688 43.3329 103.539 43.2678 103.356 43.2157C103.181 43.1636 102.985 43.1278 102.771 43.1083V42.3954L107.429 42.1415L107.575 42.288V43.704H107.614C107.797 43.5412 108.018 43.3459 108.278 43.118C108.539 42.8902 108.78 42.7046 109.001 42.5614C109.242 42.4052 109.558 42.2717 109.948 42.161C110.339 42.0503 110.756 41.995 111.198 41.995C112.259 41.995 113.054 42.2977 113.581 42.9032C114.115 43.5022 114.382 44.2997 114.382 45.2958V50.0809C114.382 50.3218 114.418 50.5139 114.489 50.6571C114.561 50.8003 114.694 50.9143 114.89 50.9989C114.994 51.0445 115.121 51.09 115.271 51.1356C115.427 51.1812 115.603 51.2137 115.798 51.2333V51.9462ZM124.292 52.2587C123.387 52.2587 122.586 52.1285 121.89 51.868C121.2 51.6011 120.63 51.2398 120.181 50.7841C119.731 50.3218 119.396 49.7749 119.175 49.1434C118.953 48.5119 118.843 47.8251 118.843 47.0829C118.843 46.4058 118.976 45.7613 119.243 45.1493C119.517 44.5373 119.884 44.0002 120.347 43.538C120.822 43.0627 121.411 42.6851 122.114 42.4052C122.824 42.1187 123.605 41.9755 124.458 41.9755C125.656 41.9755 126.603 42.2033 127.3 42.6591C127.996 43.1083 128.345 43.717 128.345 44.4852C128.345 44.954 128.221 45.3316 127.974 45.618C127.726 45.9045 127.3 46.0477 126.694 46.0477C126.206 46.0477 125.796 45.9305 125.464 45.6962C125.138 45.4618 124.976 45.1558 124.976 44.7782C124.976 44.4592 125.028 44.1434 125.132 43.8309C125.236 43.5184 125.298 43.2808 125.317 43.118C125.246 43.0009 125.155 42.913 125.044 42.8544C124.933 42.7893 124.761 42.7567 124.526 42.7567C124.233 42.7567 123.966 42.8251 123.726 42.9618C123.485 43.0985 123.26 43.3394 123.052 43.6844C122.85 44.01 122.687 44.4462 122.563 44.993C122.446 45.5399 122.388 46.1975 122.388 46.9657C122.388 48.1246 122.658 49.0588 123.198 49.7684C123.745 50.4781 124.396 50.8329 125.151 50.8329C125.874 50.8329 126.447 50.6734 126.87 50.3544C127.3 50.0288 127.681 49.5699 128.013 48.9774L128.745 49.4852C128.543 49.8824 128.302 50.2469 128.022 50.579C127.743 50.9045 127.407 51.1942 127.017 51.4481C126.606 51.715 126.19 51.9169 125.767 52.0536C125.343 52.1903 124.852 52.2587 124.292 52.2587ZM141.839 49.6122C141.611 49.9833 141.334 50.3348 141.009 50.6669C140.69 50.9924 140.325 51.2723 139.915 51.5067C139.479 51.7541 139.036 51.9397 138.587 52.0634C138.144 52.1936 137.633 52.2587 137.054 52.2587C136.09 52.2587 135.257 52.1219 134.554 51.8485C133.857 51.5751 133.281 51.2072 132.825 50.745C132.369 50.2828 132.028 49.7391 131.8 49.1141C131.578 48.4826 131.468 47.799 131.468 47.0634C131.468 46.3993 131.588 45.7645 131.829 45.1591C132.076 44.5471 132.425 44.0035 132.874 43.5282C133.317 43.066 133.873 42.6916 134.544 42.4052C135.221 42.1187 135.976 41.9755 136.81 41.9755C137.721 41.9755 138.47 42.0861 139.056 42.3075C139.642 42.5288 140.127 42.8348 140.511 43.2255C140.882 43.5966 141.152 44.036 141.321 44.5438C141.491 45.0451 141.575 45.5725 141.575 46.1259V46.7606H134.974C134.974 48.0953 135.231 49.1109 135.745 49.8075C136.259 50.5041 137.076 50.8524 138.196 50.8524C138.808 50.8524 139.358 50.6864 139.847 50.3544C140.335 50.0158 140.752 49.5894 141.097 49.0751L141.839 49.6122ZM138.108 45.9012C138.108 45.5106 138.089 45.1102 138.05 44.7001C138.011 44.2899 137.942 43.9546 137.845 43.6942C137.734 43.3882 137.581 43.1571 137.386 43.0009C137.197 42.8446 136.956 42.7665 136.663 42.7665C136.162 42.7665 135.761 43.0204 135.462 43.5282C135.162 44.036 135 44.84 134.974 45.9403L138.108 45.9012Z"/><path fill="#1DEB63" d="M122.945 82.5505H111.924V81.3025C112.322 81.2908 112.832 81.2498 113.453 81.1794C114.086 81.1091 114.52 81.0095 114.754 80.8806C115.117 80.658 115.381 80.406 115.545 80.1248C115.721 79.8318 115.809 79.4685 115.809 79.0349V60.8943H115.545L107.037 82.1462H106.158L98.0547 60.4548H97.8262V75.3435C97.8262 76.7849 97.9141 77.8806 98.0898 78.6306C98.2773 79.3806 98.5586 79.9197 98.9336 80.2478C99.1914 80.4939 99.7246 80.7283 100.533 80.9509C101.342 81.1736 101.869 81.2908 102.115 81.3025V82.5505H92.043V81.3025C92.5703 81.2556 93.1211 81.1677 93.6953 81.0388C94.2813 80.9099 94.7324 80.7166 95.0488 80.4587C95.459 80.1306 95.7402 79.6267 95.8926 78.947C96.0449 78.2673 96.1211 77.1306 96.1211 75.5369V62.7751C96.1211 62.0369 96.0332 61.4333 95.8574 60.9646C95.6816 60.4958 95.4297 60.115 95.1016 59.822C94.7383 59.5056 94.293 59.2712 93.7656 59.1189C93.2383 58.9666 92.7168 58.8787 92.2012 58.8552V57.6072H100.709L107.846 76.3103L113.945 60.6658C114.168 60.0916 114.355 59.4939 114.508 58.8728C114.672 58.24 114.76 57.8181 114.771 57.6072H122.91V58.8552C122.582 58.8669 122.16 58.9197 121.645 59.0134C121.141 59.1072 120.771 59.1951 120.537 59.2771C120.139 59.4177 119.869 59.6521 119.729 59.9802C119.588 60.3083 119.518 60.6658 119.518 61.0525V79.0349C119.518 79.4451 119.588 79.7908 119.729 80.072C119.869 80.3533 120.139 80.5994 120.537 80.8103C120.748 80.9275 121.123 81.0388 121.662 81.1443C122.201 81.238 122.629 81.2908 122.945 81.3025V82.5505Z"/><path fill="#1DEB63" d="M132.725 74.9293L128.998 75.1559L128.881 75.0465V74.0231H128.834C128.657 74.1845 128.482 74.3434 128.311 74.4996C128.144 74.6507 127.943 74.7887 127.709 74.9137C127.443 75.0543 127.191 75.1585 126.951 75.2262C126.717 75.2939 126.373 75.3278 125.92 75.3278C125.133 75.3278 124.529 75.0908 124.107 74.6168C123.691 74.1429 123.482 73.4736 123.482 72.609V69.0934C123.482 68.8903 123.443 68.7262 123.365 68.6012C123.287 68.471 123.183 68.3564 123.053 68.2574C122.949 68.1793 122.813 68.1246 122.646 68.0934C122.48 68.0569 122.329 68.0335 122.193 68.0231V67.4528L125.982 67.2496L126.068 67.3668V72.5621C126.068 73.0986 126.17 73.4944 126.373 73.7496C126.581 74.0048 126.865 74.1324 127.225 74.1324C127.594 74.1324 127.925 74.0361 128.217 73.8434C128.514 73.6507 128.73 73.4449 128.865 73.2262V69.0153C128.865 68.8382 128.831 68.6793 128.764 68.5387C128.696 68.3981 128.597 68.2835 128.467 68.1949C128.373 68.1324 128.238 68.0908 128.061 68.0699C127.889 68.0491 127.712 68.0335 127.529 68.0231V67.4528L131.318 67.2496L131.436 67.3668V73.3981C131.436 73.5804 131.472 73.7366 131.545 73.8668C131.618 73.9918 131.725 74.0986 131.865 74.1871C131.964 74.2496 132.092 74.2939 132.248 74.3199C132.41 74.3408 132.568 74.3538 132.725 74.359V74.9293ZM138.575 75.359C138.069 75.359 137.575 75.2835 137.09 75.1324C136.611 74.9866 136.239 74.8304 135.973 74.6637L135.739 75.1949H135.129L135.028 72.2809H135.598C135.676 72.5153 135.806 72.7809 135.989 73.0778C136.171 73.3694 136.379 73.6324 136.614 73.8668C136.858 74.1012 137.137 74.2991 137.45 74.4606C137.767 74.622 138.106 74.7028 138.465 74.7028C138.939 74.7028 139.291 74.6116 139.52 74.4293C139.754 74.2418 139.871 73.9554 139.871 73.5699C139.871 73.3616 139.819 73.1897 139.715 73.0543C139.611 72.9189 139.468 72.8017 139.286 72.7028C139.082 72.5986 138.858 72.5101 138.614 72.4371C138.374 72.3642 138.077 72.2757 137.723 72.1715C137.369 72.0673 137.064 71.9632 136.809 71.859C136.559 71.7496 136.299 71.5804 136.028 71.3512C135.793 71.1481 135.606 70.9033 135.465 70.6168C135.325 70.3304 135.254 69.9892 135.254 69.5934C135.254 68.859 135.562 68.2653 136.176 67.8121C136.796 67.359 137.606 67.1324 138.606 67.1324C139.08 67.1324 139.515 67.1819 139.911 67.2809C140.312 67.3746 140.648 67.4788 140.918 67.5934L141.082 67.1324H141.676L141.801 69.7965H141.246C141.064 69.2548 140.752 68.7887 140.309 68.3981C139.866 68.0022 139.39 67.8043 138.879 67.8043C138.478 67.8043 138.163 67.8877 137.934 68.0543C137.705 68.221 137.59 68.4528 137.59 68.7496C137.59 69.1455 137.757 69.4319 138.09 69.609C138.429 69.7861 138.9 69.9528 139.504 70.109C140.437 70.3486 141.119 70.6767 141.551 71.0934C141.983 71.5048 142.2 72.0309 142.2 72.6715C142.2 73.5257 141.864 74.1871 141.192 74.6559C140.525 75.1246 139.653 75.359 138.575 75.359ZM153.159 73.2262C152.977 73.5231 152.755 73.8043 152.495 74.0699C152.24 74.3304 151.948 74.5543 151.62 74.7418C151.271 74.9397 150.917 75.0882 150.557 75.1871C150.203 75.2913 149.794 75.3434 149.331 75.3434C148.56 75.3434 147.893 75.234 147.331 75.0153C146.774 74.7965 146.313 74.5022 145.948 74.1324C145.583 73.7627 145.31 73.3278 145.128 72.8278C144.951 72.3226 144.862 71.7757 144.862 71.1871C144.862 70.6559 144.958 70.1481 145.151 69.6637C145.349 69.1741 145.628 68.7392 145.987 68.359C146.341 67.9892 146.787 67.6897 147.323 67.4606C147.865 67.2314 148.469 67.1168 149.136 67.1168C149.865 67.1168 150.464 67.2054 150.932 67.3824C151.401 67.5595 151.789 67.8043 152.096 68.1168C152.393 68.4137 152.61 68.7653 152.745 69.1715C152.88 69.5726 152.948 69.9944 152.948 70.4371V70.9449H147.667C147.667 72.0127 147.873 72.8252 148.284 73.3824C148.695 73.9397 149.349 74.2184 150.245 74.2184C150.735 74.2184 151.175 74.0856 151.565 73.8199C151.956 73.5491 152.289 73.208 152.565 72.7965L153.159 73.2262ZM150.175 70.2574C150.175 69.9449 150.159 69.6246 150.128 69.2965C150.096 68.9684 150.042 68.7002 149.964 68.4918C149.875 68.247 149.753 68.0621 149.596 67.9371C149.445 67.8121 149.253 67.7496 149.018 67.7496C148.617 67.7496 148.297 67.9528 148.057 68.359C147.818 68.7653 147.688 69.4085 147.667 70.2887L150.175 70.2574ZM165.712 74.9293L161.986 75.1559L161.868 75.0465V74.0231H161.821C161.644 74.1845 161.47 74.3434 161.298 74.4996C161.131 74.6507 160.931 74.7887 160.696 74.9137C160.431 75.0543 160.178 75.1585 159.939 75.2262C159.704 75.2939 159.361 75.3278 158.907 75.3278C158.121 75.3278 157.517 75.0908 157.095 74.6168C156.678 74.1429 156.47 73.4736 156.47 72.609V69.0934C156.47 68.8903 156.431 68.7262 156.353 68.6012C156.275 68.471 156.17 68.3564 156.04 68.2574C155.936 68.1793 155.801 68.1246 155.634 68.0934C155.467 68.0569 155.316 68.0335 155.181 68.0231V67.4528L158.97 67.2496L159.056 67.3668V72.5621C159.056 73.0986 159.157 73.4944 159.361 73.7496C159.569 74.0048 159.853 74.1324 160.212 74.1324C160.582 74.1324 160.913 74.0361 161.204 73.8434C161.501 73.6507 161.717 73.4449 161.853 73.2262V69.0153C161.853 68.8382 161.819 68.6793 161.751 68.5387C161.683 68.3981 161.585 68.2835 161.454 68.1949C161.361 68.1324 161.225 68.0908 161.048 68.0699C160.876 68.0491 160.699 68.0335 160.517 68.0231V67.4528L164.306 67.2496L164.423 67.3668V73.3981C164.423 73.5804 164.46 73.7366 164.532 73.8668C164.605 73.9918 164.712 74.0986 164.853 74.1871C164.952 74.2496 165.079 74.2939 165.236 74.3199C165.397 74.3408 165.556 74.3538 165.712 74.359V74.9293ZM183.468 75.0934H178.812V74.5231C178.927 74.5074 179.046 74.4944 179.171 74.484C179.296 74.4736 179.401 74.4476 179.484 74.4059C179.599 74.3538 179.671 74.2679 179.703 74.1481C179.734 74.0231 179.75 73.8642 179.75 73.6715V70.0231C179.75 69.4866 179.653 69.0856 179.461 68.8199C179.273 68.5491 179.002 68.4137 178.648 68.4137C178.424 68.4137 178.224 68.4502 178.046 68.5231C177.875 68.5908 177.716 68.6767 177.57 68.7809C177.419 68.8903 177.302 68.9996 177.218 69.109C177.135 69.2184 177.065 69.3121 177.007 69.3903V73.5856C177.007 73.7731 177.028 73.9267 177.07 74.0465C177.117 74.1611 177.2 74.2522 177.32 74.3199C177.403 74.3668 177.497 74.4085 177.601 74.4449C177.711 74.4814 177.825 74.5074 177.945 74.5231V75.0934H173.484V74.5231C173.583 74.5127 173.703 74.4996 173.843 74.484C173.984 74.4684 174.088 74.4423 174.156 74.4059C174.265 74.3486 174.336 74.2653 174.367 74.1559C174.403 74.0465 174.421 73.8851 174.421 73.6715V70.0231C174.421 69.4866 174.325 69.0856 174.132 68.8199C173.945 68.5491 173.674 68.4137 173.32 68.4137C173.096 68.4137 172.895 68.4502 172.718 68.5231C172.546 68.5908 172.388 68.6767 172.242 68.7809C172.091 68.8903 171.974 68.9996 171.89 69.109C171.807 69.2184 171.737 69.3121 171.679 69.3903V73.5856C171.679 73.7679 171.703 73.9189 171.75 74.0387C171.796 74.1585 171.88 74.2522 172 74.3199C172.083 74.3668 172.177 74.4085 172.281 74.4449C172.39 74.4814 172.505 74.5074 172.625 74.5231V75.0934H167.945V74.5231C168.08 74.5127 168.213 74.4996 168.343 74.484C168.474 74.4684 168.586 74.4423 168.679 74.4059C168.846 74.3434 168.961 74.2548 169.023 74.1403C169.086 74.0205 169.117 73.8642 169.117 73.6715V69.1246C169.117 68.958 169.073 68.7965 168.984 68.6403C168.895 68.4788 168.789 68.3538 168.664 68.2653C168.57 68.2028 168.45 68.1507 168.304 68.109C168.164 68.0673 168.007 68.0387 167.836 68.0231V67.4528L171.562 67.2496L171.679 67.3668V68.4684H171.711C171.856 68.3382 172.028 68.1845 172.226 68.0074C172.429 67.8252 172.619 67.6793 172.796 67.5699C172.989 67.4449 173.237 67.3408 173.539 67.2574C173.841 67.1741 174.171 67.1324 174.531 67.1324C175.125 67.1324 175.619 67.2627 176.015 67.5231C176.416 67.7783 176.7 68.1194 176.867 68.5465H176.937C177.088 68.4059 177.273 68.2418 177.492 68.0543C177.711 67.8616 177.911 67.708 178.093 67.5934C178.296 67.4632 178.554 67.3538 178.867 67.2653C179.185 67.1767 179.523 67.1324 179.882 67.1324C180.669 67.1324 181.273 67.3642 181.695 67.8278C182.122 68.2913 182.336 68.9502 182.336 69.8043V73.6012C182.336 73.7939 182.364 73.9502 182.421 74.0699C182.479 74.1845 182.583 74.2731 182.734 74.3356C182.817 74.372 182.919 74.4085 183.039 74.4449C183.164 74.4814 183.307 74.5074 183.468 74.5231V75.0934Z"/></g><defs><filter id="filter0_d_221_893" width="189.16" height="98.16" x="-1.08" y="0" color-interpolation-filters="sRGB" filterUnits="userSpaceOnUse"><feFlood flood-opacity="0" result="BackgroundImageFix"/><feColorMatrix in="SourceAlpha" result="hardAlpha" type="matrix" values="0 0 0 0 0 0 0 0 0 0 0 0 0 0 0 0 0 0 127 0"/><feOffset dy="4.08"/><feGaussianBlur stdDeviation="2.04"/><feComposite in2="hardAlpha" operator="out"/><feColorMatrix type="matrix" values="0 0 0 0 0 0 0 0 0 0 0 0 0 0 0 0 0 0 0.25 0"/><feBlend in2="BackgroundImageFix" mode="normal" result="effect1_dropShadow_221_893"/><feBlend in="SourceGraphic" in2="effect1_dropShadow_221_893" mode="normal" result="shape"/></filter></defs></svg>